<?xml version="1.0" encoding="utf-8"?>
<!-- Generator: Adobe Illustrator 19.2.1, SVG Export Plug-In . SVG Version: 6.00 Build 0)  -->
<svg version="1.1" id="Layer_1" xmlns="http://www.w3.org/2000/svg" xmlns:xlink="http://www.w3.org/1999/xlink" x="0px" y="0px"
	 viewBox="0 0 32 32" style="enable-background:new 0 0 32 32;" xml:space="preserve">
<style type="text/css">
	.st0{fill:none;stroke:#C1D42F;stroke-width:0.125;stroke-miterlimit:10;}
</style>
<g>
	<path class="st0" d="M25.8,7.6c-0.3,0-0.6,0.1-0.9,0.2C24.6,7.9,24.3,8,24,8.1c-0.3,0.2-0.6,0.4-0.8,0.7c-0.2,0.3-0.4,0.6-0.6,1
		c-0.2,0.5-0.4,1.1-0.8,1.8c-0.3,0.8-0.7,1.6-1.1,2.5c-0.7,1.7-1.5,3.6-2.4,5.6s-1.7,3.9-2.3,5.5c-0.5,0-0.9,0-1.1,0
		c-0.4-1.2-0.9-2.4-1.3-3.6c-0.4-1.2-0.8-2.3-1.2-3.4c-0.7-2-1.4-3.8-1.9-5.4c-0.6-1.6-1-2.8-1.3-3.5C9.1,9.1,8.9,8.8,8.7,8.6
		C8.5,8.4,8.3,8.2,8,8.1C7.7,7.9,7.4,7.8,7.1,7.7c-0.4,0-0.7-0.1-0.9-0.1c0-0.4,0-0.7,0-0.9c4.2,0,6.9,0,8.3,0c0,0.4,0,0.7,0,0.9
		c-0.5,0-1,0.1-1.7,0.2c-0.6,0.1-0.9,0.3-0.9,0.6c0,0.1,0,0.2,0,0.3C12,8.7,12,8.9,12.1,9c0.1,0.4,0.4,1.1,0.8,2.3
		c0.4,1.1,0.9,2.5,1.5,4.1c0.3,0.9,0.7,1.8,1,2.8c0.4,1,0.7,2,1.1,3.1c0.8-2,1.7-3.9,2.4-5.8c0.8-1.8,1.4-3.3,1.8-4.3
		c0.3-0.8,0.5-1.3,0.5-1.7c0.1-0.3,0.1-0.6,0.1-0.7c0-0.4-0.4-0.7-1.1-0.8c-0.7-0.2-1.4-0.3-2-0.3c0-0.4,0-0.7,0-0.9
		c3.8,0,6.3,0,7.5,0C25.8,7.1,25.8,7.4,25.8,7.6z"/>
</g>
</svg>
