<?xml version="1.0" encoding="utf-8"?>
<!-- Generator: Adobe Illustrator 19.2.1, SVG Export Plug-In . SVG Version: 6.00 Build 0)  -->
<svg version="1.1" id="Layer_1" xmlns="http://www.w3.org/2000/svg" xmlns:xlink="http://www.w3.org/1999/xlink" x="0px" y="0px"
	 viewBox="0 0 32 32" style="enable-background:new 0 0 32 32;" xml:space="preserve">
<style type="text/css">
	.st0{fill:none;stroke:#C1D42F;stroke-width:0.125;stroke-miterlimit:10;}
</style>
<g>
	<path class="st0" d="M14.7,25.2c-4.2,0-7,0-8.5,0c0-0.4,0-0.7,0-0.9c0.2,0,0.6,0,1-0.1c0.5,0,0.8-0.1,0.9-0.2
		c0.3-0.1,0.5-0.3,0.7-0.5C8.9,23.3,9,23,9,22.7c0-5.9,0-10.4,0-13.3c0-0.3-0.1-0.6-0.2-0.8c0-0.1-0.2-0.3-0.5-0.4
		C8,8.1,7.7,8,7.3,7.9c-0.4-0.1-0.8-0.2-1-0.2c0-0.4,0-0.7,0-0.9c4.2,0,7,0,8.5,0c0,0.4,0,0.7,0,0.9c-0.2,0-0.6,0.1-1,0.1
		c-0.4,0.1-0.7,0.1-1,0.2c-0.3,0.1-0.6,0.3-0.7,0.5C12,8.8,11.9,9,11.9,9.3c0,5.9,0,10.4,0,13.3c0,0.3,0.1,0.6,0.2,0.8
		s0.3,0.4,0.7,0.5c0.2,0.1,0.5,0.1,0.9,0.2c0.5,0.1,0.8,0.1,1.1,0.1C14.7,24.7,14.7,25,14.7,25.2z"/>
	<path class="st0" d="M25.7,25.2c-4.2,0-7,0-8.5,0c0-0.4,0-0.7,0-0.9c0.2,0,0.6,0,1-0.1c0.5,0,0.8-0.1,0.9-0.2
		c0.3-0.1,0.5-0.3,0.7-0.5c0.1-0.2,0.2-0.5,0.2-0.8c0-5.9,0-10.4,0-13.3c0-0.3-0.1-0.6-0.2-0.8s-0.3-0.4-0.7-0.5
		c-0.2-0.1-0.6-0.2-1-0.3c-0.4-0.1-0.8-0.2-1-0.2c0-0.4,0-0.7,0-0.9c4.2,0,7,0,8.5,0c0,0.4,0,0.7,0,0.9c-0.2,0-0.6,0.1-1,0.1
		c-0.4,0.1-0.7,0.1-1,0.2S23,8.2,22.9,8.4c0.1,0.4,0,0.6,0,0.9c0,5.9,0,10.4,0,13.3c0,0.3,0.1,0.6,0.2,0.8c0.1,0.2,0.3,0.4,0.7,0.5
		c0.2,0.1,0.5,0.1,0.9,0.2c0.5,0.1,0.8,0.1,1.1,0.1C25.7,24.7,25.7,25,25.7,25.2z"/>
</g>
</svg>
