<?xml version="1.0" encoding="utf-8"?>
<!-- Generator: Adobe Illustrator 19.2.1, SVG Export Plug-In . SVG Version: 6.00 Build 0)  -->
<svg version="1.1" id="Layer_1" xmlns="http://www.w3.org/2000/svg" xmlns:xlink="http://www.w3.org/1999/xlink" x="0px" y="0px"
	 viewBox="0 0 377.4 531.8" style="enable-background:new 0 0 377.4 531.8;" xml:space="preserve">
<style type="text/css">
	.st0{fill:#FFFFFF;}
</style>
<g>
	<g>
		<path class="st0" d="M20.2,484.9H0.1v-11.5h34.3v57.2H20.2V484.9z"/>
		<path class="st0" d="M85.1,531.8c-7.5,0-13.8-0.5-18.9-1.5c-5.1-1-9.3-2.6-12.4-4.9c-3.1-2.3-5.4-5.4-6.8-9.2
			c-1.4-3.8-2.1-8.6-2.1-14.3s0.7-10.5,2.1-14.4c1.4-3.9,3.7-7,6.9-9.3c3.2-2.3,7.3-4,12.5-5c5.1-1,11.4-1.5,18.9-1.5
			c5,0,9.4,0.2,13.4,0.6c3.9,0.4,7.4,1.1,10.4,2.1c3,1,5.5,2.2,7.6,3.7s3.8,3.4,5.1,5.6c1.3,2.2,2.3,4.8,2.9,7.8
			c0.6,3,0.9,6.3,0.9,10.2s-0.3,7.2-0.9,10.2s-1.6,5.6-2.9,7.8c-1.3,2.2-3.1,4.1-5.2,5.6c-2.1,1.5-4.7,2.8-7.6,3.7
			c-3,1-6.4,1.6-10.4,2.1C94.5,531.6,90.1,531.8,85.1,531.8z M85.2,520c3.4,0,6.4-0.1,9-0.2c2.6-0.1,4.8-0.4,6.7-0.9
			c1.9-0.4,3.5-1.1,4.7-1.9c1.3-0.8,2.3-1.9,3-3.2c0.7-1.3,1.3-3,1.6-4.9c0.3-1.9,0.5-4.3,0.5-7c0-2.7-0.2-5.1-0.6-7
			c-0.4-2-1-3.6-1.8-4.9c-0.8-1.3-1.9-2.4-3.2-3.2c-1.3-0.8-2.9-1.4-4.8-1.8s-4.1-0.7-6.7-0.8c-2.5-0.1-5.4-0.2-8.7-0.2
			c-3.2,0-6.1,0.1-8.6,0.2c-2.5,0.1-4.7,0.4-6.6,0.8c-1.9,0.4-3.5,1-4.8,1.8c-1.3,0.8-2.3,1.8-3.2,3.1c-0.8,1.3-1.4,2.9-1.8,4.9
			c-0.4,1.9-0.5,4.3-0.5,7c0,2.7,0.2,5,0.5,6.9c0.3,1.9,0.9,3.6,1.6,4.9s1.8,2.4,3,3.3s2.8,1.5,4.7,1.9c1.9,0.4,4.2,0.7,6.7,0.9
			S81.8,520,85.2,520z"/>
		<path class="st0" d="M176.5,531.8c-7.5,0-13.8-0.5-18.9-1.5c-5.1-1-9.3-2.6-12.4-4.9c-3.1-2.3-5.4-5.4-6.8-9.2
			c-1.4-3.8-2.1-8.6-2.1-14.3s0.7-10.5,2.1-14.4c1.4-3.9,3.7-7,6.9-9.3c3.2-2.3,7.3-4,12.5-5c5.1-1,11.4-1.5,18.9-1.5
			c5,0,9.4,0.2,13.4,0.6c3.9,0.4,7.4,1.1,10.4,2.1s5.5,2.2,7.6,3.7c2.1,1.5,3.8,3.4,5.1,5.6s2.3,4.8,2.9,7.8c0.6,3,0.9,6.3,0.9,10.2
			s-0.3,7.2-0.9,10.2s-1.6,5.6-2.9,7.8c-1.3,2.2-3.1,4.1-5.2,5.6c-2.1,1.5-4.7,2.8-7.6,3.7c-3,1-6.5,1.6-10.4,2.1
			C186,531.6,181.5,531.8,176.5,531.8z M176.7,520c3.4,0,6.4-0.1,9-0.2c2.6-0.1,4.8-0.4,6.7-0.9c1.9-0.4,3.5-1.1,4.7-1.9
			s2.3-1.9,3-3.2s1.3-3,1.6-4.9s0.5-4.3,0.5-7c0-2.7-0.2-5.1-0.6-7c-0.4-2-1-3.6-1.8-4.9c-0.8-1.3-1.9-2.4-3.2-3.2
			c-1.3-0.8-2.9-1.4-4.8-1.8s-4.1-0.7-6.7-0.8s-5.4-0.2-8.7-0.2c-3.2,0-6.1,0.1-8.6,0.2c-2.5,0.1-4.7,0.4-6.6,0.8
			c-1.9,0.4-3.5,1-4.8,1.8c-1.3,0.8-2.3,1.8-3.2,3.1c-0.8,1.3-1.4,2.9-1.8,4.9c-0.4,1.9-0.5,4.3-0.5,7c0,2.7,0.2,5,0.5,6.9
			c0.3,1.9,0.9,3.6,1.6,4.9s1.8,2.4,3,3.3s2.8,1.5,4.7,1.9c1.9,0.4,4.2,0.7,6.7,0.9S173.3,520,176.7,520z"/>
	</g>
	<g>
		<path class="st0" d="M229.2,492.4h5.8l9.2,8.8l9.2-8.8h5.6l-12.6,12v6.8h-4.7v-6.8L229.2,492.4z"/>
		<path class="st0" d="M261.6,492.4h21.9v4h-17.1v3.3h11v3.8h-11v3.9h17.1v3.9h-21.9V492.4z"/>
		<path class="st0" d="M290.6,511.2h-4.9l11.9-19h5.4l11.9,19h-5.3l-1.9-3h-15.1L290.6,511.2z M300.1,496l-5.2,8.3h10.4L300.1,496z"
			/>
		<path class="st0" d="M343.4,511.2h-5.9l-7.2-6.2h-8v6.2h-4.7v-18.8h15.9c1.3,0,2.4,0.1,3.4,0.3c1,0.2,1.9,0.5,2.5,1
			c0.7,0.5,1.2,1.1,1.6,1.9c0.4,0.8,0.5,1.8,0.5,3.1c0,0.9-0.1,1.7-0.4,2.4s-0.6,1.3-1.2,1.7c-0.5,0.5-1.1,0.9-1.9,1.1
			c-0.7,0.3-1.6,0.5-2.5,0.6L343.4,511.2z M333.1,501.6c0.7,0,1.3,0,1.7-0.1c0.5-0.1,0.8-0.2,1.1-0.4s0.5-0.5,0.6-0.8
			c0.1-0.4,0.2-0.8,0.2-1.4s-0.1-1.1-0.2-1.4c-0.1-0.4-0.3-0.6-0.6-0.8c-0.3-0.2-0.7-0.3-1.1-0.4c-0.5-0.1-1-0.1-1.7-0.1h-10.9v5.4
			H333.1z"/>
		<path class="st0" d="M357.9,511.5c-1.6,0-3,0-4.4-0.1c-1.3-0.1-2.5-0.2-3.5-0.3s-1.9-0.3-2.7-0.4s-1.4-0.3-1.8-0.4l0.8-3.5
			c0.2,0,0.5,0.1,0.9,0.2c0.4,0.1,0.9,0.2,1.5,0.3c0.6,0.1,1.2,0.2,1.9,0.3c0.7,0.1,1.5,0.2,2.3,0.3s1.6,0.1,2.5,0.2
			c0.8,0.1,1.7,0.1,2.5,0.1c1.2,0,2.2,0,3.1,0s1.6-0.1,2.1-0.1c0.6-0.1,1-0.1,1.4-0.3c0.3-0.1,0.6-0.2,0.8-0.4
			c0.2-0.2,0.3-0.4,0.3-0.6s0.1-0.5,0.1-0.8s0-0.6-0.1-0.8c-0.1-0.2-0.2-0.4-0.4-0.5c-0.2-0.2-0.5-0.3-0.8-0.4
			c-0.4-0.1-0.8-0.2-1.4-0.2c-0.6-0.1-1.3-0.1-2.2-0.1c-0.9,0-1.9-0.1-3.1-0.1c-1.5,0-2.9-0.1-4.1-0.2c-1.2-0.1-2.2-0.2-3.1-0.4
			c-0.9-0.2-1.6-0.4-2.2-0.7c-0.6-0.3-1.1-0.6-1.5-1.1c-0.4-0.4-0.6-0.9-0.8-1.5s-0.2-1.3-0.2-2.1c0-0.8,0.1-1.5,0.2-2.1
			s0.4-1.1,0.8-1.5s0.8-0.8,1.5-1.1c0.6-0.3,1.3-0.5,2.2-0.7s1.9-0.3,3.1-0.4c1.2-0.1,2.6-0.1,4.1-0.1c1.3,0,2.6,0,3.9,0.1
			c1.3,0.1,2.4,0.2,3.5,0.3c1.1,0.1,2,0.3,2.8,0.4c0.8,0.1,1.4,0.3,1.8,0.4l-0.8,3.5c-0.4-0.1-0.8-0.2-1.3-0.2
			c-0.5-0.1-1.1-0.2-1.7-0.3s-1.3-0.2-1.9-0.3c-0.7-0.1-1.4-0.2-2.1-0.2c-0.7-0.1-1.4-0.1-2.1-0.2c-0.7,0-1.4-0.1-2.1-0.1
			c-1,0-1.9,0-2.6,0c-0.7,0-1.4,0-1.9,0.1c-0.5,0-0.9,0.1-1.3,0.2c-0.3,0.1-0.6,0.2-0.8,0.4s-0.3,0.3-0.4,0.5
			c-0.1,0.2-0.1,0.5-0.1,0.7c0,0.3,0,0.5,0.1,0.8c0.1,0.2,0.2,0.4,0.4,0.6s0.4,0.3,0.8,0.4s0.8,0.2,1.4,0.2c0.6,0.1,1.2,0.1,2,0.2
			c0.8,0,1.8,0.1,2.9,0.1c1.7,0,3.2,0.1,4.4,0.2s2.4,0.2,3.3,0.4s1.7,0.4,2.3,0.7c0.6,0.3,1.1,0.6,1.5,1.1c0.4,0.4,0.6,0.9,0.8,1.5
			c0.2,0.6,0.2,1.3,0.2,2.1c0,0.8-0.1,1.5-0.2,2.1c-0.2,0.6-0.4,1.1-0.8,1.6c-0.4,0.4-0.9,0.8-1.5,1.1s-1.4,0.5-2.3,0.7
			c-0.9,0.2-2.1,0.3-3.3,0.3C361.1,511.5,359.6,511.5,357.9,511.5z"/>
	</g>
	<rect x="229" y="471.9" class="st0" width="141.8" height="5.5"/>
	<g>
		<path class="st0" d="M257.6,26.4c1.2-2,2.5-3.9,3.9-5.7c0.8-1,1.5-1.8,2.2-2.6c0.9-1,1.6-1.7,2.2-2.2c0.2-0.1,0.3-0.3,0.5-0.5
			c0.7-0.8,1-1.9,0.9-2.9c-0.1-1.1-0.6-2-1.4-2.7c-1.6-1.4-4.3-1.2-5.7,0.5c-1,1.2-1.6,2.1-2.5,3.3c-0.7,1-1.3,2.1-2,3.3
			c-1.2,2.2-2.3,4.5-3.3,6.9c-1,2.5-1.8,4.8-2.4,7.3c-0.5,2-1.1,4.7-1.1,7.6c0,0.9,0.6,1.7,1.5,1.8c0.1,0,0.3,0,0.4,0
			c0.8,0,1.6-0.7,1.7-1.6c0.3-1.9,1-4.1,2-6.4C255.3,30.4,256.4,28.4,257.6,26.4z"/>
		<path class="st0" d="M270.2,33.2l-0.7,0.2c-2.5,0.9-4.8,1.9-7,3.1c-1.8,1-4.2,2.3-6.4,4.3c-0.7,0.6-0.8,1.5-0.4,2.3
			c0.3,0.5,0.9,0.9,1.6,0.8c0.3,0,0.6-0.1,0.9-0.3c1.6-1,3.7-2,6.1-2.8c2.1-0.7,4.3-1.3,6.6-1.7c2.2-0.4,4.5-0.7,6.8-0.9
			c1.1-0.1,2.3-0.1,3.4-0.1c0.7,0,2.1,0.2,3,0.3c0.4,0.1,0.8,0.1,0.9,0.1c2.4-0.1,4-1.5,3.9-3.6c-0.1-2.3-2.2-3.3-4.1-3.6
			c-1.4-0.2-4.3-0.5-7.6,0C274.4,31.7,272.3,32.5,270.2,33.2z"/>
		<path class="st0" d="M286.2,55.5c-1-0.7-2.1-1.3-3.4-1.9c-2.2-1.2-4.5-2.2-6.9-3.2c-2.5-1-4.9-1.7-7.3-2.3c-3-0.7-5.3-1-7.8-1
			c-0.9,0-1.6,0.7-1.8,1.6c-0.2,1,0.5,2,1.7,2.1c1.9,0.3,4.1,0.9,6.5,1.8c2.1,0.8,4.1,1.8,6.2,3c2.1,1.2,3.9,2.4,5.8,3.7
			c1,0.7,1.8,1.4,2.6,2.1c1,0.8,1.8,1.6,2.3,2.1c0.1,0.1,0.3,0.3,0.5,0.4c0.8,0.6,1.7,0.9,2.7,0.9c1.2,0,2.2-0.6,2.9-1.5
			c0.7-0.8,1-1.9,0.9-2.9c-0.1-1.1-0.6-2-1.5-2.7C288.4,56.9,287.4,56.3,286.2,55.5z"/>
		<path class="st0" d="M269.2,87.7c2-0.3,3.3-2.3,3-4.6c-0.1-1.7-0.4-3-0.7-4.1c-0.2-0.5-0.3-1-0.4-1.5c-0.2-0.7-0.3-1.5-0.6-2.2
			c-0.9-2.3-1.9-4.7-3.1-6.9c-1.2-2.3-2.5-4.5-4-6.5c-1.2-1.7-2.9-3.8-5.1-5.8c-0.6-0.6-1.7-0.6-2.3,0c-0.4,0.3-0.6,0.7-0.6,1.2
			c0,0.5,0.1,0.9,0.5,1.4c1.2,1.5,2.5,3.4,3.7,5.7c1,2,1.9,4.1,2.7,6.3c0.7,2.2,1.3,4.4,1.8,6.6c0.2,1,0.4,2.1,0.6,3.3
			c0.1,1.1,0.2,3.6,0.2,3.7c0,1,0.4,1.8,1.1,2.5c0.7,0.7,1.8,1,2.8,1C268.9,87.7,269,87.7,269.2,87.7z"/>
		<path class="st0" d="M217.2,33.5c0.3,0,0.6-0.1,0.8-0.1c1-0.3,2.5-0.5,3-0.6c1.1-0.1,2.2-0.1,3.4-0.1c2.2,0.1,4.5,0.6,6.7,1.5
			c2.3,0.9,4.4,2.1,6.5,3.4c2.3,1.5,4.1,3.2,5.3,4.9c0.3,0.5,0.9,0.7,1.5,0.7c0.3,0,0.5-0.1,0.7-0.2c0.4-0.2,0.7-0.6,0.8-1
			c0.1-0.4,0.1-0.9-0.1-1.3c-1.5-2.9-3.6-5-5.4-6.7c-2.1-1.9-4.3-3.5-6.8-5c-2.6-1.5-5.4-2.5-8.3-3.1c-1.5-0.3-3-0.3-4.5-0.4
			c-0.7,0-5,0.1-6,0.5c-1,0.4-1.7,1.2-2.1,2.2c-0.4,1-0.4,2.1,0.1,3.1C213.5,32.9,215.6,33.5,217.2,33.5z"/>
		<path class="st0" d="M243.9,55c-0.1-1-0.9-1.6-2-1.6c0,0,0,0,0,0c-2.8,0.1-5.4,0.9-8.2,2.2c-2.6,1.2-5.1,2.8-7.1,4.9
			c-2,2-3.7,4.2-5.2,6.8c-0.7,1.2-1.4,2.5-2,3.8c-0.5,1.3-1.1,2.5-1.5,4.2c0,0.2-0.1,0.4-0.1,0.6c-0.1,1.1,0.2,2.1,0.8,2.9
			c0.7,0.8,1.6,1.4,2.7,1.5c0.2,0,0.4,0,0.6,0c2-0.1,3.6-1.6,3.8-3.5c0.1-0.8,0.4-2,0.7-3.2c0.3-1.2,0.7-2.3,1.2-3.3
			c0.9-2.2,2.1-4.2,3.4-6c1.4-1.9,3-3.4,5-4.7c2-1.3,4.3-2.3,6.5-2.8C243.4,56.8,244,56,243.9,55z"/>
		<path class="st0" d="M249.6,57.5c-0.9-0.5-2.2-0.1-2.7,0.8c-1.4,2.6-2.2,5.1-2.9,7.2c-0.7,2.4-1.2,4.9-1.5,7.5
			c-0.3,2.5-0.5,5.1-0.5,7.6c0,1.4,0,2.7,0.1,3.9c0.1,1.2,0.2,2.5,0.5,4.1c0,0.2,0.1,0.4,0.2,0.6c0.6,1.7,2.2,2.8,4,2.7
			c0.4,0,0.8-0.1,1.1-0.2c2.1-0.7,3.2-3,2.5-5.1c-0.3-0.9-0.6-2.3-0.8-3c-0.2-1-0.4-2.2-0.5-3.3c-0.3-2.3-0.4-4.5-0.4-6.9
			c0-2.3,0.1-4.6,0.4-6.8c0.4-2.5,0.9-4.7,1.6-6.6C250.9,59.1,250.5,58,249.6,57.5z"/>
		<path class="st0" d="M271,92.2c-0.4,0-0.8,0.1-1.2,0.2c-1.2,0.4-2.2,1.2-2.7,2.3c-0.6,1.1-0.7,2.4-0.3,3.5c0.6,2,2.5,3.3,4.6,3.2
			c0.4,0,0.8-0.1,1.2-0.2c2.4-0.8,3.8-3.4,3-5.8C275,93.5,273.1,92.1,271,92.2z"/>
		<path class="st0" d="M295.8,62.5c-2.5,0.6-4,3.1-3.4,5.6c0.5,2.2,2.5,3.7,4.7,3.6c0.3,0,0.6-0.1,0.9-0.1c1.2-0.3,2.2-1,2.9-2.1
			c0.6-1.1,0.8-2.3,0.6-3.5C300.8,63.4,298.4,61.8,295.8,62.5z"/>
		<path class="st0" d="M302,29.9c-0.9-0.9-2-1.4-3.2-1.5c-2.6-0.1-4.7,2-4.8,4.5c0,1.2,0.4,2.4,1.3,3.3c0.9,0.9,2,1.4,3.2,1.5
			c0.1,0,0.2,0,0.3,0c2.4-0.1,4.4-2.1,4.4-4.5C303.3,32,302.9,30.8,302,29.9z"/>
		<path class="st0" d="M272.8,9.3c0.3,0,0.6-0.1,0.9-0.1c2.5-0.6,4-3.1,3.4-5.6c-0.6-2.4-3.1-4-5.6-3.4c-1.2,0.3-2.2,1-2.9,2.1
			c-0.7,1.1-0.9,2.3-0.6,3.5C268.6,7.9,270.6,9.4,272.8,9.3z"/>
		<path class="st0" d="M204.5,35.7c0.4,0,0.7-0.1,1.1-0.2c2.5-0.7,3.9-3.3,3.2-5.8c-0.6-2.1-2.5-3.5-4.7-3.4c-0.4,0-0.7,0.1-1.1,0.2
			c-1.2,0.3-2.2,1.1-2.8,2.2s-0.7,2.3-0.4,3.5C200.4,34.5,202.4,35.8,204.5,35.7z"/>
		<path class="st0" d="M217.5,82.1c-0.7,0-1.4,0.2-2,0.6c-1.1,0.6-1.9,1.6-2.2,2.8c-0.3,1.2-0.2,2.5,0.4,3.5
			c0.9,1.6,2.5,2.5,4.3,2.4c0.7,0,1.4-0.2,2-0.6c1.1-0.6,1.9-1.6,2.2-2.8c0.3-1.2,0.2-2.4-0.4-3.5C220.9,83,219.3,82,217.5,82.1z"/>
		<path class="st0" d="M245.4,95.5c-0.4,0-0.8,0.1-1.2,0.2c-2.4,0.8-3.8,3.4-3,5.8c0.6,2,2.5,3.3,4.6,3.2c0.4,0,0.8-0.1,1.2-0.2
			c1.2-0.4,2.2-1.2,2.7-2.3c0.6-1.1,0.7-2.4,0.3-3.5C249.4,96.8,247.5,95.4,245.4,95.5z"/>
		<path class="st0" d="M214.5,55.8c0.1-0.1,0.4-0.6,0.8-1c0.4-0.4,0.8-0.8,1.2-1.1c0.8-0.7,1.7-1.4,2.7-2c1.9-1.2,4-2.1,6.3-2.7
			c2.3-0.6,4.6-0.9,7-1l0.3,0c2.7-0.1,5.2,0.2,7.2,0.8c0.8,0.3,1.8-0.2,2.2-1c0.4-0.9,0.1-2-0.8-2.4c-2.9-1.4-5.8-1.9-8.3-2.2
			c-2.8-0.3-5.6-0.3-8.4,0c-3,0.3-5.8,1.1-8.5,2.3c-1.4,0.6-2.7,1.4-3.9,2.2c-0.7,0.4-1.3,0.9-2,1.5c-0.6,0.5-1.1,0.9-1.8,1.7
			L208,51c-0.2,0.2-0.4,0.4-0.5,0.7c-1.1,1.9-0.5,4.4,1.4,5.5c0.7,0.4,1.4,0.6,2.2,0.5C212.6,57.7,213.8,57,214.5,55.8z"/>
		<path class="st0" d="M198.5,59.2c-1.6,2-1.2,5,0.8,6.5c0.9,0.7,2,1,3.1,1c1.4-0.1,2.6-0.7,3.5-1.8c1.6-2,1.2-5-0.8-6.5
			C203,56.9,200,57.3,198.5,59.2z"/>
	</g>
	<g>
		<path class="st0" d="M100.8,52.8c-1-1.4-2.1-2.7-3.2-3.9c-0.6-0.7-1.2-1.2-1.8-1.8c-0.7-0.6-1.3-1.2-1.8-1.5
			c-0.1-0.1-0.3-0.2-0.4-0.3c-0.6-0.6-0.9-1.3-0.9-2.1c0-0.8,0.3-1.5,0.9-2.1c1.1-1.1,3.1-1.1,4.2,0c0.8,0.8,1.3,1.5,2,2.3
			c0.6,0.7,1.1,1.5,1.7,2.3c1,1.5,2,3.2,2.9,4.9c0.9,1.8,1.6,3.5,2.2,5.2c0.5,1.4,1.1,3.4,1.3,5.6c0.1,0.7-0.3,1.3-1,1.4
			c-0.1,0-0.2,0-0.3,0c-0.6,0-1.2-0.4-1.4-1.1c-0.4-1.4-1-3-1.9-4.6C102.7,55.6,101.8,54.2,100.8,52.8z"/>
		<path class="st0" d="M91.8,58.6l0.5,0.1c1.9,0.5,3.7,1.1,5.4,1.8c1.4,0.6,3.2,1.5,5,2.8c0.5,0.4,0.7,1.1,0.4,1.7
			c-0.2,0.4-0.6,0.7-1.1,0.7c-0.2,0-0.4,0-0.7-0.2c-1.3-0.6-2.9-1.2-4.7-1.7c-1.6-0.4-3.2-0.7-5-0.9c-1.7-0.2-3.3-0.2-5.1-0.2
			c-0.8,0-1.7,0.1-2.5,0.2c-0.5,0-1.5,0.3-2.2,0.4c-0.3,0.1-0.6,0.1-0.7,0.1c-1.8,0.1-3-0.9-3.1-2.4c-0.1-1.7,1.4-2.6,2.8-2.9
			c1-0.2,3.1-0.6,5.6-0.5C88.7,57.8,90.3,58.2,91.8,58.6z"/>
		<path class="st0" d="M81.5,76.1c0.7-0.6,1.5-1.1,2.4-1.6c1.6-1,3.2-1.9,4.9-2.8c1.8-0.9,3.5-1.6,5.3-2.1c2.2-0.7,3.9-1,5.7-1.2
			c0.7,0,1.2,0.4,1.4,1.1c0.2,0.7-0.3,1.5-1.1,1.7c-1.4,0.3-3,0.9-4.7,1.8c-1.5,0.7-2.9,1.6-4.4,2.6c-1.4,1-2.8,2-4,3.1
			c-0.7,0.6-1.3,1.2-1.8,1.7c-0.7,0.7-1.2,1.3-1.5,1.7c-0.1,0.1-0.2,0.2-0.3,0.4c-0.5,0.5-1.2,0.8-1.9,0.8c-0.9,0-1.7-0.3-2.3-0.9
			c-0.6-0.6-0.8-1.3-0.8-2.1c0-0.8,0.3-1.5,0.9-2.1C79.9,77.3,80.6,76.8,81.5,76.1z"/>
		<path class="st0" d="M96,98.8c-1.5-0.1-2.6-1.5-2.5-3.2c-0.1-1.3,0.1-2.2,0.3-3.1c0.1-0.4,0.1-0.8,0.2-1.1
			c0.1-0.5,0.1-1.1,0.3-1.7c0.5-1.8,1.1-3.6,1.9-5.3c0.8-1.8,1.6-3.5,2.6-5.1c0.8-1.3,1.9-3,3.4-4.6c0.4-0.5,1.2-0.5,1.7-0.2
			c0.3,0.2,0.5,0.5,0.5,0.8c0.1,0.3,0,0.7-0.3,1c-0.8,1.2-1.6,2.7-2.3,4.4c-0.6,1.5-1.1,3.1-1.6,4.8c-0.4,1.7-0.7,3.3-0.9,5
			c-0.1,0.8-0.2,1.6-0.2,2.5c0,0.8,0.1,2.6,0.1,2.7c0,0.7-0.2,1.4-0.6,1.9c-0.5,0.5-1.2,0.9-2,0.9C96.3,98.8,96.1,98.8,96,98.8z"/>
		<path class="st0" d="M131.1,55.5c-0.2,0-0.4,0-0.6,0c-0.8-0.1-1.9-0.2-2.2-0.3c-0.8,0-1.7,0-2.5,0.2c-1.6,0.2-3.3,0.8-4.9,1.5
			c-1.6,0.8-3.2,1.8-4.6,2.9c-1.6,1.3-2.8,2.6-3.6,4c-0.2,0.4-0.6,0.6-1,0.6c-0.2,0-0.4,0-0.6-0.1c-0.3-0.1-0.6-0.4-0.7-0.7
			c-0.1-0.3-0.1-0.7,0-1c0.9-2.2,2.3-3.9,3.6-5.3c1.4-1.5,3-2.9,4.7-4.1c1.8-1.3,3.8-2.2,5.9-2.8c1.1-0.3,2.2-0.4,3.3-0.6
			c0.5-0.1,3.7-0.2,4.4,0c0.8,0.2,1.4,0.8,1.7,1.5c0.4,0.7,0.4,1.5,0.1,2.3C133.8,54.8,132.3,55.4,131.1,55.5z"/>
		<path class="st0" d="M112.7,73.1c0-0.7,0.6-1.3,1.4-1.3c0,0,0,0,0,0c2-0.1,4.1,0.3,6.2,1.1c2,0.7,3.9,1.8,5.5,3.2
			c1.6,1.4,3,2.9,4.3,4.7c0.6,0.9,1.2,1.8,1.7,2.7c0.5,0.9,0.9,1.8,1.4,3c0,0.1,0.1,0.3,0.1,0.4c0.2,0.8,0,1.6-0.4,2.2
			c-0.4,0.7-1.1,1.1-1.9,1.3c-0.2,0-0.3,0.1-0.5,0.1c-1.5,0.1-2.7-0.9-3-2.4c-0.1-0.6-0.4-1.5-0.7-2.3c-0.3-0.8-0.7-1.6-1.1-2.4
			c-0.8-1.5-1.8-3-2.9-4.2c-1.2-1.3-2.5-2.3-4-3.1c-1.6-0.8-3.3-1.4-5-1.6C113.2,74.4,112.7,73.8,112.7,73.1z"/>
		<path class="st0" d="M108.6,75.3c0.7-0.4,1.6-0.2,2.1,0.4c1.2,1.8,2,3.6,2.6,5.2c0.7,1.7,1.2,3.5,1.6,5.4c0.4,1.9,0.7,3.7,0.9,5.6
			c0.1,1,0.2,2,0.2,2.9c0,0.9,0,1.9-0.1,3.1c0,0.1,0,0.3-0.1,0.4c-0.3,1.3-1.4,2.2-2.8,2.2c-0.3,0-0.6,0-0.8-0.1
			c-1.6-0.4-2.6-2-2.2-3.6c0.2-0.7,0.3-1.7,0.4-2.3c0.1-0.8,0.2-1.6,0.2-2.5c0.1-1.7,0-3.4-0.1-5.1c-0.1-1.7-0.4-3.4-0.7-5
			c-0.4-1.8-0.9-3.4-1.6-4.8C107.8,76.5,108,75.7,108.6,75.3z"/>
		<path class="st0" d="M94.9,102.3c0.3,0,0.6,0,0.9,0.1c0.9,0.2,1.7,0.7,2.2,1.5c0.5,0.8,0.7,1.7,0.4,2.6c-0.3,1.5-1.7,2.6-3.2,2.7
			c-0.3,0-0.6,0-0.9-0.1c-1.9-0.4-3-2.3-2.6-4.1C92.1,103.5,93.4,102.4,94.9,102.3z"/>
		<path class="st0" d="M74.8,81.8c1.9,0.3,3.2,2.1,2.9,3.9c-0.2,1.6-1.6,2.9-3.3,2.9c-0.2,0-0.4,0-0.7,0c-0.9-0.1-1.7-0.6-2.3-1.4
			c-0.5-0.7-0.8-1.7-0.6-2.6C71.1,82.9,72.8,81.5,74.8,81.8z"/>
		<path class="st0" d="M68.1,58.2c0.6-0.7,1.4-1.2,2.3-1.3c1.9-0.2,3.6,1.2,3.8,3c0.1,0.9-0.2,1.8-0.7,2.5c-0.6,0.7-1.4,1.2-2.3,1.3
			c-0.1,0-0.2,0-0.2,0c-1.8,0.1-3.4-1.3-3.6-3.1C67.3,59.8,67.6,58.9,68.1,58.2z"/>
		<path class="st0" d="M88.4,41.1c-0.2,0-0.4,0-0.7,0c-1.9-0.3-3.2-2-2.9-3.9c0.3-1.8,2-3.2,3.9-2.9c0.9,0.1,1.7,0.6,2.3,1.4
			c0.5,0.7,0.8,1.7,0.6,2.6C91.5,39.8,90.1,41,88.4,41.1z"/>
		<path class="st0" d="M140.6,56.4c-0.3,0-0.5,0-0.8-0.1c-1.9-0.4-3.1-2.2-2.7-4.1c0.3-1.6,1.6-2.7,3.2-2.8c0.3,0,0.5,0,0.8,0.1
			c0.9,0.2,1.7,0.7,2.2,1.5c0.5,0.8,0.7,1.7,0.5,2.6C143.5,55.2,142.2,56.3,140.6,56.4z"/>
		<path class="st0" d="M133.9,91.4c0.5,0,1.1,0.1,1.5,0.3c0.8,0.4,1.5,1.1,1.8,1.9c0.3,0.9,0.3,1.8-0.1,2.6c-0.5,1.2-1.7,2-3,2.1
			c-0.5,0-1.1-0.1-1.5-0.3c-0.8-0.4-1.5-1.1-1.8-1.9c-0.3-0.9-0.3-1.8,0.1-2.6C131.4,92.3,132.6,91.5,133.9,91.4z"/>
		<path class="st0" d="M114.1,103.1c0.3,0,0.6,0,0.9,0.1c1.9,0.4,3,2.3,2.6,4.1c-0.3,1.5-1.7,2.6-3.2,2.7c-0.3,0-0.6,0-0.9-0.1
			c-0.9-0.2-1.7-0.7-2.2-1.5c-0.5-0.8-0.7-1.7-0.4-2.6C111.2,104.3,112.5,103.2,114.1,103.1z"/>
		<path class="st0" d="M134.4,71.8c-0.1-0.1-0.4-0.4-0.7-0.7c-0.3-0.3-0.6-0.5-0.9-0.8c-0.7-0.5-1.4-0.9-2.1-1.3
			c-1.5-0.8-3.1-1.3-4.8-1.6c-1.7-0.3-3.5-0.4-5.2-0.3l-0.2,0c-2,0.1-3.8,0.4-5.2,1c-0.6,0.2-1.3,0-1.7-0.6
			c-0.4-0.6-0.2-1.4,0.5-1.8c2.1-1.2,4.2-1.8,6-2.1c2-0.4,4.1-0.6,6.2-0.5c2.2,0.1,4.4,0.5,6.5,1.2c1.1,0.4,2.1,0.8,3.1,1.4
			c0.5,0.3,1,0.6,1.5,1c0.5,0.3,0.9,0.6,1.4,1.1l0.2,0.1c0.2,0.1,0.3,0.3,0.4,0.5c0.9,1.3,0.6,3.2-0.7,4.2c-0.5,0.3-1,0.5-1.6,0.5
			C136,73.1,135,72.6,134.4,71.8z"/>
		<path class="st0" d="M146.5,73.3c1.3,1.4,1.2,3.6-0.2,4.9c-0.6,0.6-1.4,0.9-2.2,0.9c-1,0-2-0.4-2.7-1.1c-1.3-1.4-1.2-3.6,0.2-4.9
			C143,71.9,145.3,72,146.5,73.3z"/>
	</g>
	<g>
		<g>
			<path class="st0" d="M242.9,365c0,0,3.8-35.7-25.4-36.6c0,0-25.6-2.7-25.6,31.2c0,4.1,0,6.6,0,10.4c17,0.1,34,0.4,51,0.9V365z"/>
			<path class="st0" d="M294.1,360.8c0,0,2-27.1-19-27.2c0,0-19.1-2-19.1,23.2c0,5.2,0,9.2,0,14.7c12.7,0.5,25.5,1.2,38.2,2V360.8z"
				/>
			<path class="st0" d="M336.2,362.9c0,0,0.4-19.2-17.1-21.7c0,0-12.4-2.5-12.4,18.4c0,4.9,0,9.1,0,14.8c9.8,0.7,19.7,1.5,29.5,2.4
				V362.9z"/>
			<path class="st0" d="M359.6,360.3c0,0,0-11-8.3-12.5c0,0-0.2-0.1-0.6-0.1c-1.5,0-5.5,1-5.5,11.4c0,4.2,0,10.2,0,18.4
				c4.8,0.5,9.6,0.9,14.4,1.4V360.3z"/>
			<polygon class="st0" points="353.1,154.2 353.1,134.4 349.6,131.8 347.5,135.1 349.8,136.6 349.8,153.6 			"/>
			<polygon class="st0" points="364.1,285 364.1,221.6 334,216.6 334,260.6 338.3,225.4 355.7,228.3 355.7,283.6 			"/>
			<path class="st0" d="M370.7,331.6L370.7,331.6c0-0.2,0-0.3,0-0.5c-61.1-16.1-123.2-24.2-185.4-24.2l0,0c0,0,0,0,0,0s0,0,0,0l0,0
				c-62.1,0-124.2,8.1-185.4,24.2c0,0.2,0,0.4,0,0.5h0v85.8l185.4,0l185.4,0V331.6z M364.1,410.8h-4.5v-25.4
				c-4.8-0.5-9.6-1-14.4-1.4c0,10.3,0,20.6,0,26.8h-9v-27.7c-9.8-0.9-19.7-1.7-29.5-2.4c0,12.1,0,23.6,0,30.1h-12.6v-30.9
				c-12.7-0.8-25.5-1.5-38.2-2c0,13.7,0,26.3,0,33h-13v-33.5c-17-0.6-34-0.9-51-0.9c0,16.3,0,28,0,34.4h-6.5h0h-6.5
				c0-6.4,0-18.2,0-34.4c-17,0.1-34,0.4-51,0.9v33.5h-13c0-6.6,0-19.2,0-33c-12.7,0.5-25.5,1.2-38.2,2v30.9H64.1c0-6.4,0-18,0-30.1
				c-9.8,0.7-19.7,1.5-29.5,2.4v27.7h-9c0-6.2,0-16.5,0-26.8c-4.8,0.5-9.6,0.9-14.4,1.4v25.4H6.6v-71.9c59-15,118.9-22.5,178.7-22.5
				c59.9,0,119.7,7.5,178.7,22.5V410.8z"/>
			<path class="st0" d="M370.7,323.5v-26.4l-43.4-7.3v-83.2l43.4,7.4v-5.6l-43.4-7.3v-3l39.9,6.7l0-7.3l-33.3-5.6l0-16.6l21.9,3.7
				v9.4l8.4,1.4v-14.9l-30.1-5.1v-3l27.7,4.6v-7.4l-27.7-4.6v-31.6l9.2-15l7.1,5.3l1.8-1.2l-11.5-18l-16.8,29.4v41.2l-10.6,3.6
				l0,18.3l-7.8,2.7c-2.8-6.1-6.1-12-9.8-17.6c1.2-7.6-3.5-15-3.5-15h-8.1c-6.9-7.7-14.6-14.6-23.1-20.5c-0.9-5.1-3.4-9.1-3.4-9.1
				h-11.6c-8.7-4.5-17.9-8.1-27.5-10.6c-1.1-3.3-2.5-5.6-2.5-5.6h-15.5c0,0-0.5,0.8-1.1,2.1c-4.6-0.5-9.3-0.7-14-0.7h-0.1h0h-0.1
				c-4.7,0-9.4,0.3-14,0.7c-0.6-1.3-1.1-2.1-1.1-2.1h-15.5c0,0-1.4,2.3-2.5,5.6c-9.6,2.5-18.9,6.1-27.5,10.6h-11.6
				c0,0-2.5,4-3.4,9.1c-8.5,5.9-16.2,12.8-23.1,20.5h-8.1c0,0-4.7,7.5-3.5,15c-3.7,5.6-7,11.4-9.8,17.6l-7.8-2.7l0-18.3l-10.6-3.6
				v-41.2L30.2,98.9l-11.5,18l1.8,1.2l7.1-5.3l9.2,15v31.6l-27.7,4.6v7.4l27.7-4.6v3l-30.1,5.1v14.9l8.4-1.4V179l21.9-3.7l0,16.6
				l-33.3,5.6l0,7.3l39.9-6.7v3L0,208.4v5.6l43.4-7.4v83.2L0,297.1v26.4c61.1-16.1,123.3-24.2,185.4-24.2
				C247.5,299.2,309.6,307.3,370.7,323.5z M301.9,277.6c-0.1-0.1-1.9-1.8-2-1.8c-8.4-7.9-19.7-16.8-33.8-24.5c0-0.1,0-0.1,0-0.2
				l35.8-0.4V277.6z M301.9,247.9l-36.4-0.5c-1.5-8-4.2-15.5-7.8-22.5l44.2-16.7V247.9z M185.4,231.1
				C185.4,231.1,185.4,231.1,185.4,231.1L185.4,231.1C185.4,231.1,185.4,231.1,185.4,231.1C185.4,231.1,185.4,231.1,185.4,231.1
				L185.4,231.1C185.4,231.1,185.4,231.1,185.4,231.1C185.3,231.1,185.3,231.1,185.4,231.1L185.4,231.1c-0.3,0-0.5,0-0.7,0
				l-8.8-46.4c3.1-0.4,6.2-0.6,9.4-0.6c0,0,0.1,0,0.1,0v0c0,0,0,0,0,0s0,0,0,0v0c0,0,0.1,0,0.1,0c3.2,0,6.3,0.2,9.4,0.6l-8.8,46.4
				C185.8,231.1,185.6,231.1,185.4,231.1L185.4,231.1C185.4,231.1,185.4,231.1,185.4,231.1z M117.8,222.7c3.6-6.1,8-11.7,13.1-16.6
				l30.8,26.5c-3.6,0.5-7.1,1.1-10.5,1.7L117.8,222.7z M143,236.2c-11.3,2.9-21.5,6.7-30.7,11.1l-3.9,0.1c1.5-7.6,4.1-14.8,7.6-21.4
				L143,236.2z M133.7,203.5c5-4.3,10.5-8.1,16.4-11.1l22,39.1c-1.2,0.1-2.5,0.2-3.7,0.3L133.7,203.5z M153.8,190.7
				c5.7-2.5,11.8-4.4,18.2-5.5l7.5,45.9c-0.6,0-1.1,0-1.7,0.1L153.8,190.7z M198.8,185.3c6.4,1.1,12.5,3,18.2,5.5l-24.1,40.5
				c-0.6,0-1.1,0-1.7-0.1L198.8,185.3z M220.6,192.4c6,3,11.5,6.7,16.4,11.1l-34.7,28.4c-1.2-0.1-2.5-0.2-3.7-0.3L220.6,192.4z
				 M239.9,206.1c5.1,4.9,9.5,10.5,13.1,16.6l-33.4,11.7c-3.4-0.7-6.9-1.3-10.5-1.7L239.9,206.1z M254.8,226
				c3.5,6.6,6.1,13.8,7.6,21.4l-3.9-0.1c-9.2-4.4-19.4-8.3-30.7-11.1L254.8,226z M292.7,183.1c0.5-0.6,0.9-1.2,1.2-1.8
				c2.9,4.7,5.6,9.6,7.9,14.7v9.6l-46,16.1c-3.8-6.5-8.4-12.3-13.7-17.5l31.2-26.8c0.4,2,1.3,4,2.8,5.8H292.7z M258.2,153.5
				c1.9-2.3,2.8-4.9,3.1-7.4c6.3,4.6,12.1,9.8,17.4,15.4h-2c0,0-3.7,5.9-3.7,12.5l-33.6,27.5c-5.2-4.6-11-8.6-17.3-11.8l20.4-36.3
				H258.2z M216.6,137.4c3-3.6,3.5-7.8,3-11.6c7.5,2.1,14.7,4.8,21.5,8.1c-1.7,3.5-4.5,11.1-0.8,17.6l-21.8,36.6
				c-6.1-2.7-12.5-4.7-19.3-5.9l7.4-44.9H216.6z M170.7,137.4c4.1-5,3.5-11.2,2.1-15.6c4.1-0.4,8.3-0.6,12.5-0.6h0.1h0h0.1
				c4.2,0,8.4,0.2,12.5,0.6c-1.4,4.4-2,10.5,2.1,15.6h3.8l-8.4,44.3c-3.3-0.4-6.6-0.6-9.9-0.6c0,0-0.1,0-0.1,0c0,0-0.1,0-0.1,0
				c-3.4,0-6.7,0.2-9.9,0.6l-8.4-44.3H170.7z M151.2,125.8c-0.5,3.7,0,7.9,3,11.6h9.9l7.4,44.9c-6.7,1.2-13.2,3.1-19.3,5.9
				l-21.8-36.6c3.7-6.5,0.9-14.1-0.8-17.6C136.5,130.6,143.7,127.9,151.2,125.8z M109.5,146.1c0.3,2.5,1.2,5.1,3.1,7.4h15.8
				l20.4,36.3c-6.3,3.2-12.1,7.1-17.3,11.8l-33.6-27.5c0-6.6-3.7-12.5-3.7-12.5h-2C97.4,155.9,103.2,150.7,109.5,146.1z M68.9,196
				c2.3-5.1,5-10,7.9-14.7c0.4,0.6,0.8,1.2,1.2,1.8h16.6c1.5-1.8,2.4-3.8,2.8-5.8l31.2,26.8c-5.3,5.2-9.9,11.1-13.7,17.5l-46-16.1
				V196z M68.9,208.3l44.2,16.7c-3.6,7-6.3,14.5-7.8,22.5l-36.4,0.5V208.3z M68.9,277.6v-27l35.8,0.4c0,0.1,0,0.1,0,0.2
				c-14.1,7.7-25.4,16.6-33.8,24.5C70.7,275.8,68.9,277.5,68.9,277.6z M146.1,291.1c-18.6,1-37.1,2.8-55.6,5.2
				c-0.7,0.1-1.4,0.2-2.1,0.2c-21.5,2.4-7.4-11.3-7.4-11.3c18.5-20.8,39.6-29.7,39.6-29.7c9.9-4.8,19.6-8,28.4-10.3
				c-7.4,5.3-23.9,18.2-39,38.5l4.8-0.9c0,0,27.5-31.5,49.5-40.8c2.7-0.4,5.2-0.8,7.4-1c-3.8,4.4-14.7,17.7-24.2,38.3l4.5-0.4
				c0,0,16.1-31.1,27.3-38.6c0.5,0,1-0.1,1.4-0.1c0.9,0,1.8-0.1,2.7-0.1c0,0,0,0,0,0v37.7h2h0h0h0h0h0h2v-37.7c0,0,0,0,0,0
				c0.9,0,1.8,0.1,2.7,0.1c0.4,0,0.9,0,1.4,0.1c11.2,7.5,27.3,38.6,27.3,38.6l4.5,0.4c-9.5-20.7-20.4-33.9-24.2-38.3
				c2.3,0.3,4.8,0.6,7.4,1c22,9.3,49.5,40.8,49.5,40.8l4.8,0.9c-15.1-20.2-31.5-33.2-39-38.5c8.8,2.3,18.5,5.6,28.4,10.3
				c0,0,21.1,8.9,39.6,29.7c0,0,14.1,13.8-7.4,11.3c-0.7-0.1-1.4-0.2-2.1-0.2c-18.5-2.5-37.1-4.2-55.6-5.2
				c-17.5-1.2-30.3-1.3-36-1.3h-3.3h0h-3.3C176.4,289.8,163.6,289.8,146.1,291.1z"/>
			<polygon class="st0" points="344.5,152.8 344.5,133 341,130.3 338.9,133.7 341.1,135.2 341.1,152.2 			"/>
			<path class="st0" d="M153.3,328.4c-29.2,0.8-25.4,36.6-25.4,36.6v6c17-0.6,34-0.9,51-0.9c0-3.8,0-6.3,0-10.4
				C178.8,325.7,153.3,328.4,153.3,328.4z"/>
			<path class="st0" d="M95.7,333.6c-21.1,0.1-19,27.2-19,27.2v12.8c12.7-0.8,25.5-1.5,38.2-2c0-5.5,0-9.5,0-14.7
				C114.8,331.6,95.7,333.6,95.7,333.6z"/>
			<path class="st0" d="M51.6,341.1c-17.5,2.5-17.1,21.7-17.1,21.7v14c9.8-0.9,19.7-1.7,29.5-2.4c0-5.8,0-10,0-14.8
				C64.1,338.7,51.6,341.1,51.6,341.1z"/>
			<path class="st0" d="M20,347.8c-0.4,0-0.6,0.1-0.6,0.1c-8.3,1.5-8.3,12.5-8.3,12.5v18.7c4.8-0.5,9.6-1,14.4-1.4
				c0-8.2,0-14.2,0-18.4C25.5,348.8,21.6,347.8,20,347.8z"/>
			<polygon class="st0" points="21.1,131.8 17.6,134.4 17.6,154.2 20.9,153.6 20.9,136.6 23.2,135.1 			"/>
			<polygon class="st0" points="32.4,225.4 36.7,260.6 36.7,216.6 6.6,221.6 6.6,285 15,283.6 15,228.3 			"/>
			<polygon class="st0" points="29.8,130.3 26.2,133 26.2,152.8 29.6,152.2 29.6,135.2 31.9,133.7 			"/>
		</g>
	</g>
	<rect x="229" y="526.2" class="st0" width="141.8" height="5.5"/>
</g>
<g>
	<path class="st0" d="M69.4,459.5v-5.2h-7.3l2.3-3.6h20.3l2.3,3.6h-8.7v5.2h24.1V454h-6.9l-16.4-24.4h-8.4L54.5,454h-6.9v-18.8h6.9
		v-5.6H33.6v5.6h6.9v15.2l-22.4-20.9H0v5.6h7.2V454H0v5.5h21.4V454h-7.1v-18.2l25.8,23.7H69.4z M67.5,445.9l7-10.7l7.1,10.7H67.5z"
		/>
	<polygon class="st0" points="161,434.9 167.2,434.9 156,444.2 144.8,434.9 151.9,434.9 151.9,429.5 120.5,429.5 120.5,434.9 
		127.9,434.9 115.6,453.7 103.3,434.9 111.5,434.9 111.5,429.5 87.7,429.5 87.7,435.2 94.8,435.2 111,459.5 119.4,459.5 
		135.5,435.2 135.7,435.2 151.7,448.5 151.7,454 143.6,454 143.6,459.5 167.3,459.5 167.3,454 159.3,454 159.3,448.5 175.5,435.2 
		182.1,435.2 182.1,429.5 161,429.5 	"/>
	<path class="st0" d="M233.6,429.5h-32.5v5.6h7.2V454h-7.2v5.5h23v-5.4h-8.3v-4.6h17.7c8.2,0,12.9-2,12.9-10.2
		C246.4,430.9,241.7,429.5,233.6,429.5z M233.1,444.3h-17.2v-9.4H233c4.2,0,5.8,0.7,5.8,4.7C238.8,443.6,237.3,444.3,233.1,444.3z"
		/>
	<polygon class="st0" points="248.8,435.2 256.5,435.2 256.5,454 248.8,454 248.8,459.5 271.8,459.5 271.8,454 264.1,454 
		264.1,435.2 271.8,435.2 271.8,429.5 248.8,429.5 	"/>
	<polygon class="st0" points="276.6,435.2 283.8,435.2 283.8,454 276.6,454 276.6,459.5 320.6,459.5 320.6,447.6 313.3,447.6 
		313.3,454.2 291.4,454.2 291.4,446.9 305.8,446.9 305.8,441.3 291.4,441.3 291.4,434.9 313.3,434.9 313.3,440.8 320.6,440.8 
		320.6,429.5 276.6,429.5 	"/>
	<path class="st0" d="M371.1,454l-9.6-6.4c5.9-0.7,9.2-3.1,9.2-8.7c0-7.8-4.6-9.3-12.8-9.3h-32.5v5.6h7.2V454h-7.2v5.5h20.6v-5.2h-6
		v-5.6h12.7l8.6,5.6h-6.2v5.2h22.3V454H371.1z M357.4,443.6H340v-8.7h17.3c4.3,0,5.8,0.5,5.8,4.4
		C363.1,443.1,361.6,443.6,357.4,443.6z"/>
</g>
</svg>
