<?xml version="1.0" encoding="utf-8"?>
<!-- Generator: Adobe Illustrator 19.2.1, SVG Export Plug-In . SVG Version: 6.00 Build 0)  -->
<svg version="1.1" id="Layer_1" xmlns="http://www.w3.org/2000/svg" xmlns:xlink="http://www.w3.org/1999/xlink" x="0px" y="0px"
	 viewBox="0 0 692.4 202.4" style="enable-background:new 0 0 692.4 202.4;" xml:space="preserve">
<style type="text/css">
	.st0{fill:#FFFFFF;}
</style>
<g>
	<g>
		<g>
			<path class="st0" d="M199.9,106H183v-9.7h28.8v48h-11.9V106z"/>
			<path class="st0" d="M254.4,145.4c-6.3,0-11.6-0.4-15.9-1.2c-4.3-0.8-7.8-2.2-10.4-4.1c-2.6-1.9-4.5-4.5-5.7-7.7s-1.7-7.2-1.7-12
				s0.6-8.8,1.8-12.1c1.2-3.2,3.1-5.8,5.8-7.8c2.7-2,6.2-3.4,10.5-4.2c4.3-0.8,9.6-1.3,15.9-1.3c4.2,0,7.9,0.2,11.2,0.5
				c3.3,0.4,6.2,0.9,8.7,1.7c2.5,0.8,4.6,1.9,6.4,3.1c1.8,1.3,3.2,2.9,4.3,4.7c1.1,1.9,1.9,4.1,2.4,6.5c0.5,2.5,0.8,5.3,0.8,8.5
				s-0.3,6-0.8,8.5c-0.5,2.5-1.3,4.7-2.4,6.5c-1.1,1.9-2.6,3.4-4.3,4.7c-1.8,1.3-3.9,2.3-6.4,3.1c-2.5,0.8-5.4,1.4-8.7,1.7
				C262.4,145.2,258.6,145.4,254.4,145.4z M254.6,135.4c2.9,0,5.4-0.1,7.6-0.2c2.2-0.1,4.1-0.4,5.7-0.7c1.6-0.4,2.9-0.9,4-1.6
				c1.1-0.7,1.9-1.6,2.5-2.7c0.6-1.1,1.1-2.5,1.3-4.1c0.3-1.6,0.4-3.6,0.4-5.9c0-2.3-0.2-4.3-0.5-5.9c-0.3-1.6-0.8-3-1.5-4.1
				c-0.7-1.1-1.6-2-2.7-2.7c-1.1-0.7-2.5-1.2-4.1-1.5c-1.6-0.3-3.5-0.6-5.6-0.7s-4.6-0.2-7.3-0.2c-2.7,0-5.1,0-7.2,0.1
				c-2.1,0.1-4,0.3-5.6,0.7c-1.6,0.3-2.9,0.8-4,1.5c-1.1,0.6-2,1.5-2.7,2.6s-1.2,2.5-1.5,4.1c-0.3,1.6-0.4,3.6-0.4,5.9
				c0,2.3,0.1,4.2,0.4,5.8c0.3,1.6,0.7,3,1.4,4.1c0.6,1.1,1.5,2,2.5,2.7c1.1,0.7,2.4,1.2,4,1.6s3.5,0.6,5.7,0.8
				C249.2,135.4,251.7,135.4,254.6,135.4z"/>
			<path class="st0" d="M331.3,145.4c-6.3,0-11.6-0.4-15.9-1.2c-4.3-0.8-7.8-2.2-10.4-4.1c-2.6-1.9-4.5-4.5-5.7-7.7s-1.7-7.2-1.7-12
				s0.6-8.8,1.8-12.1c1.2-3.2,3.1-5.8,5.8-7.8c2.7-2,6.2-3.4,10.5-4.2c4.3-0.8,9.6-1.3,15.9-1.3c4.2,0,7.9,0.2,11.2,0.5
				c3.3,0.4,6.2,0.9,8.7,1.7c2.5,0.8,4.6,1.9,6.4,3.1s3.2,2.9,4.3,4.7c1.1,1.9,1.9,4.1,2.4,6.5c0.5,2.5,0.8,5.3,0.8,8.5
				s-0.3,6-0.8,8.5c-0.5,2.5-1.3,4.7-2.4,6.5c-1.1,1.9-2.6,3.4-4.3,4.7s-3.9,2.3-6.4,3.1c-2.5,0.8-5.4,1.4-8.7,1.7
				C339.2,145.2,335.4,145.4,331.3,145.4z M331.4,135.4c2.9,0,5.4-0.1,7.6-0.2c2.2-0.1,4.1-0.4,5.7-0.7c1.6-0.4,2.9-0.9,4-1.6
				c1.1-0.7,1.9-1.6,2.5-2.7s1.1-2.5,1.3-4.1c0.3-1.6,0.4-3.6,0.4-5.9c0-2.3-0.2-4.3-0.5-5.9c-0.3-1.6-0.8-3-1.5-4.1
				c-0.7-1.1-1.6-2-2.7-2.7c-1.1-0.7-2.5-1.2-4.1-1.5c-1.6-0.3-3.5-0.6-5.6-0.7s-4.6-0.2-7.3-0.2c-2.7,0-5.1,0-7.2,0.1
				c-2.1,0.1-4,0.3-5.6,0.7c-1.6,0.3-2.9,0.8-4,1.5c-1.1,0.6-2,1.5-2.7,2.6s-1.2,2.5-1.5,4.1c-0.3,1.6-0.4,3.6-0.4,5.9
				c0,2.3,0.1,4.2,0.4,5.8c0.3,1.6,0.7,3,1.4,4.1c0.6,1.1,1.5,2,2.5,2.7c1.1,0.7,2.4,1.2,4,1.6s3.5,0.6,5.7,0.8
				C326,135.4,328.5,135.4,331.4,135.4z"/>
		</g>
	</g>
	<g>
		<polygon class="st0" points="525.1,123.1 538,123.1 531.6,112.7 		"/>
		<path class="st0" d="M580.4,118.1c0.2-0.5,0.2-1.1,0.2-1.8s-0.1-1.4-0.3-1.8c-0.2-0.5-0.4-0.8-0.8-1c-0.4-0.2-0.8-0.4-1.4-0.5
			s-1.3-0.1-2.2-0.1h-13.6v6.8h13.6c0.8,0,1.6,0,2.1-0.1c0.6-0.1,1.1-0.2,1.4-0.4C580,118.9,580.3,118.5,580.4,118.1z"/>
		<path class="st0" d="M380.3,94.6V145h303V94.6H380.3z M417.4,125.3c0,0,0,0.1-0.1,0.1c-2.2-0.6-4.4-1.2-6.6-1.9
			c-0.6,2.3-1.2,4.6-1.8,6.9c0,0-0.1,0-0.1,0c-0.6-2.3-1.2-4.6-1.8-6.9c-2.2,0.6-4.4,1.2-6.6,1.9c1.6-1.7,3.2-3.4,4.8-5.1
			c-1.7-1.8-3.3-3.5-4.9-5.1c0,0,0-0.1,0.1-0.1c2.2,0.6,4.4,1.2,6.6,1.9c0.6-2.3,1.2-4.6,1.8-6.9c0,0,0.1,0,0.1,0
			c0.6,2.3,1.2,4.6,1.8,7c2.2-0.6,4.4-1.2,6.6-1.9c0,0,0,0,0,0.1c-1.6,1.7-3.2,3.4-4.8,5.1C414.3,122,415.9,123.7,417.4,125.3z
			 M458.7,123.1v8.5h-5.9v-8.5l-15.7-15h7.3l11.5,11l11.5-11h7L458.7,123.1z M508.2,113h-21.4v4.1h13.7v4.8h-13.7v4.8h21.4v4.8
			h-27.3v-23.5h27.3V113z M543.4,131.6l-2.4-3.8h-18.9l-2.4,3.8h-6.2l14.8-23.7h6.8l14.9,23.7H543.4z M581.5,131.6l-9-7.7h-10v7.7
			h-5.8v-23.5h19.9c1.6,0,3,0.1,4.3,0.4c1.3,0.2,2.3,0.7,3.2,1.3c0.9,0.6,1.5,1.4,2,2.4c0.5,1,0.7,2.3,0.7,3.8c0,1.1-0.2,2.1-0.5,3
			c-0.3,0.9-0.8,1.6-1.4,2.2c-0.6,0.6-1.4,1.1-2.3,1.4c-0.9,0.4-2,0.6-3.2,0.7l9.7,8.3H581.5z M625.8,127.4c-0.2,0.8-0.5,1.4-1,1.9
			c-0.5,0.5-1.1,1-1.9,1.4c-0.8,0.4-1.7,0.6-2.9,0.8c-1.2,0.2-2.6,0.3-4.2,0.4c-1.6,0.1-3.5,0.1-5.6,0.1c-2,0-3.8,0-5.5-0.1
			c-1.6-0.1-3.1-0.2-4.4-0.4c-1.3-0.2-2.4-0.3-3.3-0.5c-0.9-0.2-1.7-0.4-2.3-0.5l1-4.4c0.2,0.1,0.6,0.1,1.1,0.3
			c0.5,0.1,1.1,0.2,1.9,0.3c0.7,0.1,1.5,0.2,2.4,0.4c0.9,0.1,1.8,0.2,2.8,0.3c1,0.1,2,0.2,3.1,0.2s2.1,0.1,3.1,0.1
			c1.5,0,2.8,0,3.8,0s2-0.1,2.7-0.2c0.7-0.1,1.3-0.2,1.7-0.3s0.7-0.3,1-0.5s0.4-0.5,0.4-0.7c0.1-0.3,0.1-0.6,0.1-1s0-0.7-0.1-1
			c-0.1-0.3-0.2-0.5-0.5-0.7s-0.6-0.3-1.1-0.5c-0.5-0.1-1.1-0.2-1.8-0.3s-1.7-0.1-2.8-0.2c-1.1,0-2.4-0.1-3.9-0.1
			c-1.9,0-3.6-0.1-5.1-0.2c-1.5-0.1-2.8-0.3-3.9-0.5c-1.1-0.2-2-0.5-2.8-0.8s-1.4-0.8-1.8-1.3c-0.5-0.5-0.8-1.2-1-1.9
			c-0.2-0.7-0.3-1.6-0.3-2.6c0-1,0.1-1.8,0.3-2.6c0.2-0.7,0.5-1.4,1-1.9c0.5-0.5,1.1-1,1.8-1.4c0.8-0.4,1.7-0.6,2.8-0.9
			c1.1-0.2,2.4-0.4,3.9-0.5c1.5-0.1,3.2-0.1,5.1-0.1c1.7,0,3.3,0.1,4.9,0.2c1.6,0.1,3,0.2,4.4,0.4c1.3,0.2,2.5,0.3,3.5,0.5
			c1,0.2,1.7,0.3,2.2,0.5l-1,4.4c-0.5-0.1-1-0.2-1.6-0.3c-0.6-0.1-1.3-0.2-2.1-0.3c-0.8-0.1-1.6-0.2-2.4-0.3
			c-0.9-0.1-1.7-0.2-2.6-0.3c-0.9-0.1-1.8-0.1-2.7-0.2c-0.9,0-1.7-0.1-2.6-0.1c-1.3,0-2.4,0-3.3,0c-0.9,0-1.7,0.1-2.4,0.1
			c-0.7,0.1-1.2,0.2-1.6,0.3s-0.7,0.3-1,0.4c-0.2,0.2-0.4,0.4-0.5,0.7c-0.1,0.3-0.1,0.6-0.1,0.9c0,0.4,0,0.7,0.1,1
			c0.1,0.3,0.2,0.5,0.5,0.7c0.2,0.2,0.6,0.4,1,0.5s1,0.2,1.7,0.3c0.7,0.1,1.5,0.1,2.6,0.2c1,0,2.2,0.1,3.6,0.1
			c2.1,0.1,3.9,0.1,5.5,0.2c1.6,0.1,3,0.3,4.1,0.5c1.2,0.2,2.1,0.5,2.9,0.9c0.8,0.4,1.4,0.8,1.8,1.3c0.5,0.5,0.8,1.2,1,1.9
			c0.2,0.7,0.3,1.6,0.3,2.6C626.1,125.7,626,126.6,625.8,127.4z M663,125.3c0,0,0,0.1-0.1,0.1c-2.2-0.6-4.4-1.2-6.6-1.9
			c-0.6,2.3-1.2,4.6-1.8,6.9c0,0-0.1,0-0.1,0c-0.6-2.3-1.2-4.6-1.8-6.9c-2.2,0.6-4.4,1.2-6.6,1.9c1.6-1.7,3.2-3.4,4.8-5.1
			c-1.7-1.8-3.3-3.5-4.9-5.1c0,0,0-0.1,0.1-0.1c2.2,0.6,4.4,1.2,6.6,1.9c0.6-2.3,1.2-4.6,1.8-6.9c0,0,0.1,0,0.1,0
			c0.6,2.3,1.2,4.6,1.8,7c2.2-0.6,4.4-1.2,6.6-1.9c0,0,0,0,0,0.1c-1.6,1.7-3.2,3.4-4.8,5.1C659.8,122,661.4,123.7,663,125.3z"/>
	</g>
	<path class="st0" d="M207.7,16.5c0.8-1.3,1.6-2.4,2.4-3.5c0.5-0.6,0.9-1.1,1.4-1.6c0.5-0.6,1-1.1,1.4-1.4c0.1-0.1,0.2-0.2,0.3-0.3
		c0.4-0.5,0.6-1.2,0.6-1.8c-0.1-0.7-0.4-1.3-0.9-1.7c-1-0.9-2.7-0.7-3.5,0.3c-0.6,0.7-1,1.3-1.5,2.1c-0.4,0.6-0.8,1.3-1.3,2.1
		c-0.8,1.4-1.5,2.8-2.1,4.3c-0.6,1.5-1.1,3-1.5,4.5c-0.3,1.2-0.7,2.9-0.7,4.8c0,0.6,0.4,1,0.9,1.1c0.1,0,0.2,0,0.2,0
		c0.5,0,1-0.4,1.1-1c0.2-1.2,0.6-2.5,1.2-4C206.3,19,207,17.7,207.7,16.5z"/>
	<path class="st0" d="M215.6,20.7l-0.4,0.2c-1.6,0.6-3,1.2-4.4,1.9c-1.1,0.6-2.6,1.5-4,2.7c-0.4,0.4-0.5,1-0.2,1.4
		c0.2,0.3,0.6,0.5,1,0.5c0.2,0,0.4-0.1,0.6-0.2c1-0.6,2.3-1.2,3.8-1.8c1.3-0.4,2.7-0.8,4.1-1.1c1.4-0.3,2.8-0.4,4.3-0.5
		c0.7,0,1.4-0.1,2.1,0c0.4,0,1.3,0.1,1.8,0.2c0.3,0,0.5,0.1,0.6,0.1c1.5-0.1,2.5-1,2.4-2.2c0-1.4-1.4-2.1-2.5-2.2
		c-0.9-0.1-2.7-0.3-4.7,0C218.2,19.8,216.9,20.3,215.6,20.7z"/>
	<path class="st0" d="M225.6,34.7c-0.7-0.4-1.3-0.8-2.1-1.2c-1.4-0.7-2.8-1.4-4.3-2c-1.5-0.6-3-1.1-4.6-1.4
		c-1.9-0.4-3.3-0.6-4.8-0.6c-0.6,0-1,0.4-1.1,1c-0.1,0.6,0.3,1.2,1,1.3c1.2,0.2,2.6,0.6,4,1.1c1.3,0.5,2.6,1.1,3.9,1.8
		c1.3,0.7,2.5,1.5,3.6,2.3c0.6,0.5,1.2,0.9,1.6,1.3c0.6,0.5,1.1,1,1.4,1.3c0.1,0.1,0.2,0.2,0.3,0.3c0.5,0.4,1.1,0.6,1.7,0.6
		c0.7,0,1.4-0.4,1.8-0.9c0.4-0.5,0.6-1.2,0.5-1.8c-0.1-0.7-0.4-1.3-0.9-1.7C226.9,35.5,226.3,35.1,225.6,34.7z"/>
	<path class="st0" d="M215,54.7c1.3-0.2,2.1-1.4,1.9-2.8c0-1.1-0.2-1.9-0.4-2.6c-0.1-0.3-0.2-0.6-0.2-0.9c-0.1-0.4-0.2-0.9-0.4-1.4
		c-0.5-1.5-1.2-2.9-1.9-4.3c-0.8-1.5-1.6-2.8-2.5-4.1c-0.8-1-1.8-2.4-3.2-3.6c-0.4-0.4-1-0.4-1.4,0c-0.2,0.2-0.4,0.5-0.4,0.8
		c0,0.3,0.1,0.6,0.3,0.8c0.8,0.9,1.5,2.1,2.3,3.6c0.6,1.2,1.2,2.5,1.7,3.9c0.5,1.4,0.8,2.7,1.1,4.1c0.1,0.6,0.2,1.3,0.4,2.1
		c0.1,0.7,0.1,2.2,0.1,2.3c0,0.6,0.2,1.1,0.7,1.5c0.4,0.4,1.1,0.6,1.8,0.6C214.8,54.8,214.9,54.8,215,54.7z"/>
	<path class="st0" d="M182.5,20.9c0.2,0,0.4,0,0.5-0.1c0.6-0.2,1.5-0.3,1.9-0.4c0.7-0.1,1.4-0.1,2.1,0c1.4,0.1,2.8,0.4,4.2,0.9
		c1.4,0.6,2.8,1.3,4,2.1c1.4,1,2.5,2,3.3,3.1c0.2,0.3,0.6,0.5,0.9,0.4c0.2,0,0.3,0,0.5-0.1c0.3-0.1,0.4-0.4,0.5-0.6
		c0.1-0.3,0.1-0.6-0.1-0.8c-0.9-1.8-2.2-3.1-3.4-4.2c-1.3-1.2-2.7-2.2-4.2-3.1c-1.6-0.9-3.4-1.6-5.2-2c-0.9-0.2-1.9-0.2-2.8-0.3
		c-0.5,0-3.1,0.1-3.7,0.3c-0.6,0.2-1.1,0.7-1.3,1.4c-0.2,0.6-0.2,1.3,0,1.9C180.2,20.5,181.5,20.9,182.5,20.9z"/>
	<path class="st0" d="M199.2,34.4c-0.1-0.6-0.6-1-1.3-1c0,0,0,0,0,0c-1.7,0.1-3.4,0.6-5.1,1.4c-1.6,0.8-3.2,1.8-4.4,3.1
		c-1.3,1.3-2.3,2.6-3.3,4.3c-0.4,0.8-0.9,1.6-1.2,2.4c-0.3,0.8-0.7,1.6-1,2.7c0,0.1-0.1,0.2-0.1,0.4c-0.1,0.7,0.1,1.3,0.5,1.8
		c0.4,0.5,1,0.9,1.7,0.9c0.1,0,0.3,0,0.4,0c1.2-0.1,2.2-1,2.4-2.2c0.1-0.5,0.2-1.2,0.4-2c0.2-0.7,0.5-1.4,0.7-2.1
		c0.6-1.4,1.3-2.6,2.1-3.8c0.9-1.2,1.9-2.1,3.1-2.9c1.2-0.8,2.7-1.4,4.1-1.7C198.8,35.4,199.2,34.9,199.2,34.4z"/>
	<path class="st0" d="M202.8,35.9c-0.6-0.3-1.4-0.1-1.7,0.5c-0.9,1.6-1.4,3.2-1.8,4.5c-0.4,1.5-0.7,3-1,4.7
		c-0.2,1.6-0.3,3.2-0.3,4.7c0,0.9,0,1.7,0.1,2.4c0.1,0.8,0.1,1.6,0.3,2.6c0,0.1,0.1,0.2,0.1,0.4c0.4,1,1.4,1.7,2.5,1.7
		c0.2,0,0.5-0.1,0.7-0.1c1.3-0.4,2-1.9,1.6-3.2c-0.2-0.6-0.4-1.4-0.5-1.9c-0.1-0.6-0.2-1.3-0.3-2.1c-0.2-1.4-0.3-2.8-0.3-4.3
		c0-1.5,0.1-2.9,0.3-4.3c0.2-1.6,0.6-2.9,1-4.1C203.5,36.9,203.3,36.2,202.8,35.9z"/>
	<path class="st0" d="M216.1,57.6c-0.3,0-0.5,0.1-0.8,0.1c-0.7,0.2-1.3,0.7-1.7,1.4c-0.4,0.7-0.4,1.5-0.2,2.2c0.4,1.2,1.6,2.1,2.9,2
		c0.3,0,0.5-0.1,0.8-0.1c1.5-0.5,2.4-2.1,1.9-3.6C218.6,58.4,217.4,57.5,216.1,57.6z"/>
	<path class="st0" d="M231.6,39c-1.6,0.4-2.5,1.9-2.1,3.5c0.3,1.3,1.6,2.3,2.9,2.2c0.2,0,0.4,0,0.6-0.1c0.8-0.2,1.4-0.6,1.8-1.3
		c0.4-0.7,0.5-1.4,0.3-2.2C234.7,39.6,233.2,38.6,231.6,39z"/>
	<path class="st0" d="M235.5,18.7c-0.5-0.6-1.3-0.9-2-0.9c-1.6-0.1-2.9,1.2-3,2.8c0,0.8,0.3,1.5,0.8,2.1c0.5,0.6,1.3,0.9,2,0.9
		c0.1,0,0.1,0,0.2,0c1.5-0.1,2.7-1.3,2.8-2.8C236.3,20,236,19.2,235.5,18.7z"/>
	<path class="st0" d="M217.2,5.8c0.2,0,0.4,0,0.6-0.1c1.6-0.4,2.5-1.9,2.1-3.5c-0.4-1.5-1.9-2.5-3.5-2.2c-0.8,0.2-1.4,0.6-1.8,1.3
		c-0.4,0.7-0.5,1.4-0.4,2.2C214.6,4.9,215.8,5.9,217.2,5.8z"/>
	<path class="st0" d="M174.6,22.3c0.2,0,0.5,0,0.7-0.1c1.5-0.4,2.4-2.1,2-3.6c-0.4-1.3-1.6-2.2-2.9-2.1c-0.2,0-0.5,0-0.7,0.1
		c-0.7,0.2-1.4,0.7-1.7,1.4s-0.5,1.5-0.3,2.2C172,21.5,173.2,22.4,174.6,22.3z"/>
	<path class="st0" d="M182.7,51.3c-0.4,0-0.9,0.1-1.3,0.4c-0.7,0.4-1.2,1-1.4,1.7c-0.2,0.7-0.1,1.5,0.2,2.2c0.5,1,1.6,1.6,2.7,1.5
		c0.4,0,0.9-0.1,1.3-0.4c0.7-0.4,1.2-1,1.4-1.7c0.2-0.7,0.1-1.5-0.2-2.2C184.8,51.8,183.8,51.2,182.7,51.3z"/>
	<path class="st0" d="M200.1,59.6c-0.3,0-0.5,0.1-0.8,0.1c-1.5,0.5-2.4,2.1-1.9,3.6c0.4,1.3,1.6,2.1,2.9,2c0.3,0,0.5-0.1,0.8-0.1
		c0.7-0.2,1.3-0.7,1.7-1.4c0.4-0.7,0.4-1.5,0.2-2.2C202.6,60.4,201.4,59.6,200.1,59.6z"/>
	<path class="st0" d="M180.8,34.8c0.1-0.1,0.3-0.4,0.5-0.6c0.2-0.2,0.5-0.5,0.7-0.7c0.5-0.5,1.1-0.9,1.7-1.3
		c1.2-0.7,2.5-1.3,3.9-1.7c1.4-0.4,2.9-0.5,4.3-0.6l0.2,0c1.7-0.1,3.2,0.1,4.5,0.5c0.5,0.2,1.1-0.1,1.3-0.6c0.3-0.6,0-1.2-0.5-1.5
		c-1.8-0.9-3.6-1.2-5.2-1.4c-1.7-0.2-3.5-0.2-5.3,0c-1.9,0.2-3.6,0.7-5.3,1.5c-0.9,0.4-1.7,0.8-2.5,1.4c-0.4,0.3-0.8,0.6-1.2,0.9
		c-0.4,0.3-0.7,0.6-1.1,1l-0.1,0.1c-0.1,0.1-0.2,0.3-0.3,0.4c-0.7,1.2-0.3,2.7,0.9,3.4c0.4,0.2,0.9,0.4,1.4,0.3
		C179.6,36,180.4,35.6,180.8,34.8z"/>
	<path class="st0" d="M170.8,37c-1,1.3-0.8,3.1,0.5,4.1c0.5,0.4,1.2,0.6,1.9,0.6c0.9,0,1.6-0.4,2.2-1.1c1-1.3,0.8-3.1-0.5-4.1
		C173.7,35.5,171.8,35.8,170.8,37z"/>
	<path class="st0" d="M115.7,16.4c-0.6-0.9-1.3-1.7-2-2.5c-0.4-0.4-0.7-0.8-1.1-1.1c-0.4-0.4-0.8-0.7-1.1-0.9
		c-0.1-0.1-0.2-0.1-0.2-0.2c-0.4-0.3-0.5-0.8-0.5-1.3c0-0.5,0.2-1,0.5-1.3c0.7-0.7,1.9-0.7,2.6,0c0.5,0.5,0.8,0.9,1.3,1.4
		c0.4,0.4,0.7,0.9,1.1,1.4c0.7,1,1.3,2,1.8,3c0.6,1.1,1,2.2,1.4,3.3c0.3,0.9,0.7,2.1,0.8,3.5c0,0.4-0.2,0.8-0.6,0.9
		c-0.1,0-0.1,0-0.2,0c-0.4,0-0.7-0.2-0.9-0.7c-0.2-0.9-0.6-1.8-1.2-2.9C116.9,18.2,116.3,17.3,115.7,16.4z"/>
	<path class="st0" d="M110.1,20l0.3,0.1c1.2,0.3,2.3,0.7,3.4,1.1c0.9,0.4,2,0.9,3.1,1.7c0.3,0.2,0.4,0.7,0.3,1
		c-0.1,0.3-0.4,0.4-0.7,0.5c-0.1,0-0.3,0-0.4-0.1c-0.8-0.4-1.8-0.8-2.9-1.1c-1-0.2-2-0.4-3.1-0.5c-1-0.1-2.1-0.2-3.2-0.1
		c-0.5,0-1,0.1-1.6,0.1c-0.3,0-1,0.2-1.3,0.3c-0.2,0-0.3,0.1-0.4,0.1c-1.1,0-1.9-0.6-1.9-1.5c-0.1-1.1,0.9-1.6,1.7-1.8
		c0.6-0.1,2-0.4,3.5-0.3C108.1,19.5,109.2,19.8,110.1,20z"/>
	<path class="st0" d="M103.6,31c0.5-0.3,0.9-0.7,1.5-1c1-0.6,2-1.2,3.1-1.7c1.1-0.5,2.2-1,3.3-1.3c1.4-0.4,2.4-0.6,3.5-0.7
		c0.4,0,0.8,0.3,0.9,0.7c0.1,0.5-0.2,0.9-0.7,1.1c-0.9,0.2-1.9,0.6-2.9,1.1c-0.9,0.4-1.8,1-2.7,1.6c-0.9,0.6-1.7,1.3-2.5,2
		c-0.4,0.4-0.8,0.7-1.1,1.1c-0.4,0.4-0.8,0.8-1,1.1c-0.1,0.1-0.1,0.2-0.2,0.2c-0.3,0.3-0.8,0.5-1.2,0.5c-0.5,0-1-0.2-1.4-0.6
		c-0.3-0.4-0.5-0.8-0.5-1.3c0-0.5,0.2-1,0.6-1.3C102.7,31.7,103.1,31.4,103.6,31z"/>
	<path class="st0" d="M112.7,45.2c-0.9-0.1-1.6-0.9-1.6-2c0-0.8,0.1-1.4,0.2-1.9c0-0.2,0.1-0.5,0.1-0.7c0-0.3,0.1-0.7,0.2-1
		c0.3-1.1,0.7-2.2,1.2-3.3c0.5-1.1,1-2.2,1.6-3.2c0.5-0.8,1.2-1.9,2.1-2.9c0.3-0.3,0.7-0.3,1.1-0.1c0.2,0.1,0.3,0.3,0.3,0.5
		c0,0.2,0,0.4-0.2,0.6c-0.5,0.7-1,1.7-1.5,2.8c-0.4,0.9-0.7,2-1,3c-0.3,1-0.4,2.1-0.6,3.1c-0.1,0.5-0.1,1-0.1,1.6c0,0.5,0,1.7,0,1.7
		c0,0.5-0.1,0.9-0.4,1.2c-0.3,0.3-0.8,0.5-1.3,0.6C112.9,45.2,112.8,45.2,112.7,45.2z"/>
	<path class="st0" d="M134.6,18.1c-0.1,0-0.3,0-0.4,0c-0.5-0.1-1.2-0.2-1.4-0.2c-0.5,0-1,0-1.6,0.1c-1,0.1-2.1,0.5-3,0.9
		c-1,0.5-2,1.1-2.8,1.8c-1,0.8-1.8,1.6-2.3,2.5c-0.1,0.2-0.4,0.4-0.7,0.4c-0.1,0-0.2,0-0.3-0.1c-0.2-0.1-0.3-0.2-0.4-0.4
		c-0.1-0.2-0.1-0.4,0-0.6c0.6-1.4,1.5-2.4,2.2-3.3c0.9-0.9,1.9-1.8,2.9-2.6c1.1-0.8,2.4-1.4,3.7-1.8c0.7-0.2,1.4-0.3,2-0.4
		c0.3,0,2.3-0.1,2.8,0c0.5,0.1,0.9,0.5,1.1,0.9c0.2,0.4,0.2,0.9,0.1,1.4C136.3,17.7,135.4,18.1,134.6,18.1z"/>
	<path class="st0" d="M123.1,29.1c0-0.5,0.4-0.8,0.9-0.8c0,0,0,0,0,0c1.3-0.1,2.5,0.2,3.9,0.7c1.3,0.5,2.4,1.1,3.5,2
		c1,0.9,1.9,1.8,2.7,2.9c0.4,0.5,0.7,1.1,1.1,1.7c0.3,0.6,0.6,1.1,0.9,1.9c0,0.1,0.1,0.2,0.1,0.3c0.1,0.5,0,1-0.3,1.4
		c-0.3,0.4-0.7,0.7-1.2,0.8c-0.1,0-0.2,0-0.3,0c-0.9,0-1.7-0.6-1.9-1.5c-0.1-0.4-0.2-0.9-0.4-1.4c-0.2-0.5-0.4-1-0.7-1.5
		c-0.5-1-1.1-1.9-1.8-2.6c-0.7-0.8-1.5-1.4-2.5-2c-1-0.5-2.1-0.9-3.1-1C123.5,29.9,123.1,29.5,123.1,29.1z"/>
	<path class="st0" d="M120.6,30.5c0.4-0.3,1-0.1,1.3,0.3c0.8,1.1,1.2,2.3,1.6,3.2c0.4,1.1,0.7,2.2,1,3.4c0.3,1.2,0.4,2.3,0.6,3.5
		c0.1,0.6,0.1,1.2,0.1,1.8c0,0.6,0,1.2-0.1,1.9c0,0.1,0,0.2,0,0.3c-0.2,0.8-0.9,1.4-1.7,1.4c-0.2,0-0.4,0-0.5-0.1
		c-1-0.2-1.6-1.3-1.3-2.2c0.1-0.4,0.2-1.1,0.2-1.4c0.1-0.5,0.1-1,0.1-1.6c0-1.1,0-2.1-0.1-3.2c-0.1-1.1-0.2-2.1-0.5-3.1
		c-0.3-1.1-0.6-2.1-1-3C120.1,31.2,120.2,30.7,120.6,30.5z"/>
	<path class="st0" d="M112.1,47.3c0.2,0,0.4,0,0.6,0.1c0.6,0.1,1,0.5,1.3,1c0.3,0.5,0.4,1.1,0.3,1.6c-0.2,0.9-1,1.6-2,1.7
		c-0.2,0-0.4,0-0.6-0.1c-1.2-0.3-1.9-1.4-1.6-2.6C110.3,48,111.1,47.4,112.1,47.3z"/>
	<path class="st0" d="M99.5,34.5c1.2,0.2,2,1.3,1.8,2.5c-0.2,1-1,1.8-2,1.8c-0.1,0-0.3,0-0.4,0c-0.6-0.1-1.1-0.4-1.4-0.9
		c-0.3-0.5-0.5-1-0.4-1.6C97.2,35.2,98.3,34.4,99.5,34.5z"/>
	<path class="st0" d="M95.3,19.8c0.4-0.5,0.9-0.7,1.4-0.8c1.2-0.1,2.3,0.7,2.4,1.9c0.1,0.6-0.1,1.1-0.5,1.6
		c-0.4,0.4-0.9,0.7-1.4,0.8c-0.1,0-0.1,0-0.2,0c-1.1,0-2.1-0.8-2.2-1.9C94.8,20.8,95,20.2,95.3,19.8z"/>
	<path class="st0" d="M108,9.1c-0.1,0-0.3,0-0.4,0c-1.2-0.2-2-1.3-1.8-2.5c0.2-1.2,1.3-2,2.4-1.8c0.6,0.1,1.1,0.4,1.4,0.9
		c0.3,0.5,0.5,1,0.4,1.6C109.9,8.3,109,9.1,108,9.1z"/>
	<path class="st0" d="M140.6,18.7c-0.2,0-0.3,0-0.5,0c-1.2-0.2-1.9-1.4-1.7-2.5c0.2-1,1-1.7,2-1.7c0.2,0,0.3,0,0.5,0
		c0.6,0.1,1.1,0.4,1.4,0.9c0.3,0.5,0.4,1.1,0.3,1.6C142.4,17.9,141.5,18.6,140.6,18.7z"/>
	<path class="st0" d="M136.4,40.5c0.3,0,0.7,0,1,0.2c0.5,0.2,0.9,0.7,1.1,1.2c0.2,0.5,0.2,1.1,0,1.6c-0.3,0.8-1.1,1.2-1.9,1.3
		c-0.3,0-0.7,0-1-0.2c-0.5-0.2-0.9-0.7-1.1-1.2c-0.2-0.5-0.2-1.1,0-1.6C134.8,41.1,135.6,40.6,136.4,40.5z"/>
	<path class="st0" d="M124,47.8c0.2,0,0.4,0,0.6,0.1c1.2,0.3,1.9,1.4,1.6,2.6c-0.2,0.9-1,1.6-2,1.7c-0.2,0-0.4,0-0.6-0.1
		c-0.6-0.1-1-0.5-1.3-1c-0.3-0.5-0.4-1.1-0.3-1.6C122.2,48.6,123,47.9,124,47.8z"/>
	<path class="st0" d="M136.7,28.3c0-0.1-0.2-0.3-0.4-0.4c-0.2-0.2-0.4-0.3-0.6-0.5c-0.4-0.3-0.9-0.6-1.3-0.8c-0.9-0.5-2-0.8-3-1
		c-1.1-0.2-2.2-0.2-3.2-0.2l-0.1,0c-1.3,0.1-2.4,0.3-3.3,0.6c-0.4,0.2-0.8,0-1-0.4c-0.2-0.4-0.1-0.9,0.3-1.1
		c1.3-0.8,2.6-1.1,3.7-1.3c1.3-0.2,2.6-0.4,3.9-0.3c1.4,0,2.7,0.3,4,0.7c0.7,0.2,1.3,0.5,1.9,0.9c0.3,0.2,0.6,0.4,1,0.6
		c0.3,0.2,0.5,0.4,0.9,0.7l0.1,0.1c0.1,0.1,0.2,0.2,0.3,0.3c0.6,0.8,0.4,2-0.4,2.6c-0.3,0.2-0.6,0.3-1,0.3
		C137.7,29.1,137.1,28.8,136.7,28.3z"/>
	<path class="st0" d="M144.3,29.2c0.8,0.9,0.8,2.2-0.1,3c-0.4,0.3-0.9,0.5-1.4,0.6c-0.6,0-1.2-0.2-1.7-0.7c-0.8-0.9-0.8-2.2,0.1-3
		C142.1,28.4,143.5,28.4,144.3,29.2z"/>
</g>
<g>
	<g>
		<g>
			<path class="st0" d="M112.1,178.2c0,0,1.7-16.5-11.7-16.9c0,0-11.8-1.2-11.8,14.4c0,1.9,0,3.1,0,4.8c7.8,0,15.7,0.2,23.5,0.4
				V178.2z"/>
			<path class="st0" d="M135.7,176.3c0,0,0.9-12.5-8.8-12.6c0,0-8.8-0.9-8.8,10.7c0,2.4,0,4.3,0,6.8c5.9,0.2,11.7,0.6,17.6,0.9
				V176.3z"/>
			<path class="st0" d="M155.1,177.3c0,0,0.2-8.9-7.9-10c0,0-5.7-1.1-5.7,8.5c0,2.2,0,4.2,0,6.8c4.5,0.3,9.1,0.7,13.6,1.1V177.3z"/>
			<path class="st0" d="M165.9,176.1c0,0,0-5.1-3.8-5.8c0,0-0.1,0-0.3,0c-0.7,0-2.5,0.5-2.5,5.3c0,1.9,0,4.7,0,8.5
				c2.2,0.2,4.4,0.4,6.6,0.7V176.1z"/>
			<polygon class="st0" points="163,81 163,71.8 161.3,70.6 160.4,72.2 161.4,72.9 161.4,80.7 			"/>
			<polygon class="st0" points="168,141.3 168,112.1 154.1,109.8 154.1,130.1 156.1,113.8 164.1,115.2 164.1,140.7 			"/>
			<path class="st0" d="M171.1,162.8L171.1,162.8c0-0.1,0-0.2,0-0.2c-28.2-7.5-56.9-11.2-85.5-11.2v0c0,0,0,0,0,0c0,0,0,0,0,0v0
				c-28.7,0-57.3,3.7-85.5,11.2c0,0.1,0,0.2,0,0.2h0v39.6l85.5,0l85.5,0V162.8z M168,199.4h-2.1v-11.7c-2.2-0.2-4.4-0.5-6.6-0.7
				c0,4.8,0,9.5,0,12.4h-4.2v-12.8c-4.5-0.4-9.1-0.8-13.6-1.1c0,5.6,0,10.9,0,13.9h-5.8v-14.3c-5.9-0.4-11.7-0.7-17.6-0.9
				c0,6.3,0,12.1,0,15.2h-6v-15.5c-7.8-0.3-15.7-0.4-23.5-0.4c0,7.5,0,12.9,0,15.9h-3h0h-3c0-3,0-8.4,0-15.9
				c-7.8,0-15.7,0.2-23.5,0.4v15.5h-6c0-3.1,0-8.9,0-15.2c-5.9,0.2-11.7,0.6-17.6,0.9v14.3h-5.8c0-3,0-8.3,0-13.9
				c-4.5,0.3-9.1,0.7-13.6,1.1v12.8h-4.2c0-2.9,0-7.6,0-12.4c-2.2,0.2-4.4,0.4-6.6,0.7v11.7H3.1v-33.2c27.2-6.9,54.8-10.4,82.5-10.4
				c27.6,0,55.2,3.5,82.5,10.4V199.4z"/>
			<path class="st0" d="M171.1,159.1v-12.2l-20-3.4v-38.4l20,3.4V106l-20-3.4v-1.4l18.4,3.1l0-3.4L154,98.4l0-7.7l10.1,1.7v4.4
				l3.9,0.6v-6.9l-13.9-2.3v-1.4l12.8,2.1v-3.4l-12.8-2.1V68.8l4.3-6.9l3.3,2.4l0.8-0.5l-5.3-8.3l-7.7,13.6v19l-4.9,1.7l0,8.4
				l-3.6,1.2c-1.3-2.8-2.8-5.5-4.5-8.1c0.6-3.5-1.6-6.9-1.6-6.9h-3.7c-3.2-3.6-6.7-6.7-10.6-9.5c-0.4-2.4-1.6-4.2-1.6-4.2h-5.3
				c-4-2.1-8.3-3.7-12.7-4.9c-0.5-1.5-1.2-2.6-1.2-2.6h-7.1c0,0-0.2,0.4-0.5,1c-2.1-0.2-4.3-0.3-6.5-0.3h0h0h0
				c-2.2,0-4.3,0.1-6.5,0.3c-0.3-0.6-0.5-1-0.5-1h-7.1c0,0-0.7,1-1.2,2.6c-4.5,1.2-8.7,2.8-12.7,4.9h-5.3c0,0-1.2,1.8-1.6,4.2
				c-3.9,2.7-7.5,5.9-10.6,9.5h-3.7c0,0-2.2,3.4-1.6,6.9c-1.7,2.6-3.2,5.3-4.5,8.1l-3.6-1.2l0-8.4l-4.9-1.7v-19l-7.7-13.6l-5.3,8.3
				l0.8,0.5l3.3-2.4l4.3,6.9v14.6L4.2,85.6V89L17,86.8v1.4L3.1,90.6v6.9l3.9-0.6v-4.4L17,90.7l0,7.7L1.6,101l0,3.4l18.4-3.1v1.4
				L0,106v2.6l20-3.4v38.4l-20,3.4v12.2c28.2-7.4,56.9-11.2,85.5-11.2C114.2,147.9,142.9,151.6,171.1,159.1z M139.3,137.9
				c0,0-0.9-0.8-0.9-0.8c-3.9-3.6-9.1-7.7-15.6-11.3c0,0,0-0.1,0-0.1l16.5-0.2V137.9z M139.3,124.2l-16.8-0.2
				c-0.7-3.7-1.9-7.2-3.6-10.4l20.4-7.7V124.2z M85.5,116.4C85.5,116.4,85.5,116.4,85.5,116.4L85.5,116.4
				C85.5,116.4,85.5,116.4,85.5,116.4C85.5,116.4,85.5,116.4,85.5,116.4L85.5,116.4C85.5,116.4,85.5,116.4,85.5,116.4
				C85.5,116.4,85.5,116.4,85.5,116.4L85.5,116.4c-0.1,0-0.2,0-0.3,0L81.2,95c1.4-0.2,2.9-0.3,4.3-0.3c0,0,0,0,0.1,0v0c0,0,0,0,0,0
				s0,0,0,0v0c0,0,0,0,0.1,0c1.5,0,2.9,0.1,4.3,0.3l-4.1,21.4C85.7,116.4,85.6,116.4,85.5,116.4L85.5,116.4
				C85.5,116.4,85.5,116.4,85.5,116.4z M54.4,112.6c1.7-2.8,3.7-5.4,6-7.6l14.2,12.2c-1.7,0.2-3.3,0.5-4.8,0.8L54.4,112.6z
				 M66,118.8c-5.2,1.3-9.9,3.1-14.2,5.1l-1.8,0c0.7-3.5,1.9-6.8,3.5-9.9L66,118.8z M61.7,103.7c2.3-2,4.8-3.7,7.6-5.1l10.1,18.1
				c-0.6,0-1.1,0.1-1.7,0.1L61.7,103.7z M70.9,97.8c2.6-1.2,5.5-2,8.4-2.5l3.5,21.2c-0.3,0-0.5,0-0.8,0L70.9,97.8z M91.7,95.3
				c2.9,0.5,5.7,1.4,8.4,2.5L89,116.5c-0.3,0-0.5,0-0.8,0L91.7,95.3z M101.8,98.6c2.7,1.4,5.3,3.1,7.6,5.1l-16,13.1
				c-0.6-0.1-1.1-0.1-1.7-0.1L101.8,98.6z M110.7,104.9c2.3,2.3,4.4,4.8,6,7.6l-15.4,5.4c-1.6-0.3-3.2-0.6-4.8-0.8L110.7,104.9z
				 M117.6,114.1c1.6,3.1,2.8,6.4,3.5,9.9l-1.8,0c-4.2-2-8.9-3.8-14.2-5.1L117.6,114.1z M135.1,94.3c0.2-0.3,0.4-0.5,0.6-0.8
				c1.4,2.2,2.6,4.4,3.7,6.8v4.4l-21.2,7.4c-1.7-3-3.9-5.7-6.3-8.1l14.4-12.4c0.2,0.9,0.6,1.8,1.3,2.7H135.1z M119.1,80.7
				c0.9-1.1,1.3-2.3,1.4-3.4c2.9,2.1,5.6,4.5,8,7.1h-0.9c0,0-1.7,2.7-1.7,5.8l-15.5,12.7c-2.4-2.1-5.1-4-8-5.4l9.4-16.7H119.1z
				 M99.9,73.2c1.4-1.7,1.6-3.6,1.4-5.3c3.4,1,6.8,2.2,9.9,3.7c-0.8,1.6-2.1,5.1-0.4,8.1l-10,16.9c-2.8-1.2-5.8-2.2-8.9-2.7
				l3.4-20.7H99.9z M78.8,73.2c1.9-2.3,1.6-5.1,1-7.2c1.9-0.2,3.8-0.3,5.8-0.3h0h0h0c1.9,0,3.9,0.1,5.8,0.3c-0.6,2-0.9,4.9,1,7.2H94
				l-3.9,20.5c-1.5-0.2-3-0.3-4.6-0.3c0,0,0,0-0.1,0c0,0,0,0-0.1,0c-1.6,0-3.1,0.1-4.6,0.3L77,73.2H78.8z M69.7,67.9
				c-0.2,1.7,0,3.7,1.4,5.3h4.6l3.4,20.7c-3.1,0.5-6.1,1.5-8.9,2.7l-10-16.9c1.7-3,0.4-6.5-0.4-8.1C63,70.1,66.3,68.8,69.7,67.9z
				 M50.5,77.3c0.1,1.2,0.5,2.3,1.4,3.4h7.3l9.4,16.7c-2.9,1.5-5.6,3.3-8,5.4L45.1,90.1c0-3.1-1.7-5.8-1.7-5.8h-0.9
				C44.9,81.8,47.6,79.4,50.5,77.3z M31.8,100.3c1.1-2.3,2.3-4.6,3.7-6.8c0.2,0.3,0.4,0.6,0.6,0.8h7.6c0.7-0.8,1.1-1.8,1.3-2.7
				L59.3,104c-2.5,2.4-4.6,5.1-6.3,8.1l-21.2-7.4V100.3z M31.8,105.9l20.4,7.7c-1.7,3.2-2.9,6.7-3.6,10.4l-16.8,0.2V105.9z
				 M31.8,137.9v-12.4l16.5,0.2c0,0,0,0.1,0,0.1c-6.5,3.6-11.7,7.7-15.6,11.3C32.6,137.1,31.8,137.9,31.8,137.9z M67.4,144.1
				c-8.6,0.5-17.1,1.3-25.7,2.4c-0.3,0-0.6,0.1-1,0.1c-9.9,1.1-3.4-5.2-3.4-5.2c8.5-9.6,18.3-13.7,18.3-13.7c4.6-2.2,9-3.7,13.1-4.8
				c-3.4,2.4-11,8.4-18,17.8l2.2-0.4c0,0,12.7-14.5,22.9-18.8c1.2-0.2,2.4-0.4,3.4-0.5c-1.7,2-6.8,8.1-11.2,17.7l2.1-0.2
				c0,0,7.4-14.4,12.6-17.8c0.2,0,0.4,0,0.6,0c0.4,0,0.8,0,1.2,0c0,0,0,0,0,0V138h0.9h0h0h0h0h0h0.9v-17.4c0,0,0,0,0,0
				c0.4,0,0.8,0,1.2,0c0.2,0,0.4,0,0.6,0c5.2,3.5,12.6,17.8,12.6,17.8l2.1,0.2c-4.4-9.5-9.4-15.7-11.2-17.7c1,0.1,2.2,0.3,3.4,0.5
				c10.2,4.3,22.9,18.8,22.9,18.8l2.2,0.4c-7-9.3-14.6-15.3-18-17.8c4,1.1,8.5,2.6,13.1,4.8c0,0,9.7,4.1,18.3,13.7
				c0,0,6.5,6.3-3.4,5.2c-0.3,0-0.6-0.1-1-0.1c-8.5-1.1-17.1-1.9-25.7-2.4c-8.1-0.6-14-0.6-16.6-0.6h-1.5h0H84
				C81.4,143.5,75.5,143.6,67.4,144.1z"/>
			<polygon class="st0" points="159,80.3 159,71.2 157.3,70 156.4,71.5 157.4,72.2 157.4,80.1 			"/>
			<path class="st0" d="M70.7,161.4C57.3,161.8,59,178.2,59,178.2v2.8c7.8-0.3,15.7-0.4,23.5-0.4c0-1.7,0-2.9,0-4.8
				C82.5,160.1,70.7,161.4,70.7,161.4z"/>
			<path class="st0" d="M44.2,163.8c-9.7,0.1-8.8,12.6-8.8,12.6v5.9c5.9-0.4,11.7-0.7,17.6-0.9c0-2.5,0-4.4,0-6.8
				C53,162.8,44.2,163.8,44.2,163.8z"/>
			<path class="st0" d="M23.8,167.2c-8.1,1.1-7.9,10-7.9,10v6.4c4.5-0.4,9.1-0.8,13.6-1.1c0-2.7,0-4.6,0-6.8
				C29.6,166.1,23.8,167.2,23.8,167.2z"/>
			<path class="st0" d="M9.3,170.3c-0.2,0-0.3,0-0.3,0c-3.8,0.7-3.8,5.8-3.8,5.8v8.7c2.2-0.2,4.4-0.5,6.6-0.7c0-3.8,0-6.6,0-8.5
				C11.8,170.8,9.9,170.3,9.3,170.3z"/>
			<polygon class="st0" points="9.7,70.6 8.1,71.8 8.1,81 9.7,80.7 9.7,72.9 10.7,72.2 			"/>
			<polygon class="st0" points="15,113.8 16.9,130.1 16.9,109.8 3.1,112.1 3.1,141.3 6.9,140.7 6.9,115.2 			"/>
			<polygon class="st0" points="13.7,70 12.1,71.2 12.1,80.3 13.7,80.1 13.7,72.2 14.7,71.5 			"/>
		</g>
	</g>
	<path class="st0" d="M276.7,202.4v-7.1h-9.8l3.1-4.8h27.4l3.1,4.8h-11.7v7.1h32.5v-7.4h-9.4l-22.1-33h-11.3l-22,33h-9.3v-25.4h9.3
		v-7.6h-28.2v7.6h9.4v20.6l-30.2-28.2H183v7.6h9.7v25.4H183v7.4h28.9v-7.4h-9.6v-24.5l34.8,31.9H276.7z M274.1,184.2l9.4-14.5
		l9.5,14.5H274.1z"/>
	<polygon class="st0" points="400.2,169.4 408.6,169.4 393.5,181.8 378.4,169.4 388,169.4 388,162.1 345.7,162.1 345.7,169.4 
		355.6,169.4 339,194.7 322.4,169.4 333.5,169.4 333.5,162.1 301.3,162.1 301.3,169.7 310.9,169.7 332.8,202.4 344.1,202.4 
		365.9,169.7 366.1,169.7 387.7,187.7 387.7,195.1 376.8,195.1 376.8,202.4 408.8,202.4 408.8,195.1 397.9,195.1 397.9,187.6 
		419.8,169.7 428.8,169.7 428.8,162.1 400.2,162.1 	"/>
	<path class="st0" d="M498.2,162.1h-43.8v7.6h9.7v25.4h-9.7v7.4h31.1v-7.2h-11.2V189h23.8c11,0,17.4-2.6,17.4-13.7
		C515.5,164,509.2,162.1,498.2,162.1z M497.5,181.9h-23.2v-12.6h23.1c5.7,0,7.9,1,7.9,6.3C505.3,181,503.2,181.9,497.5,181.9z"/>
	<polygon class="st0" points="518.7,169.7 529.2,169.7 529.2,195.1 518.7,195.1 518.7,202.4 549.8,202.4 549.8,195.1 539.4,195.1 
		539.4,169.7 549.8,169.7 549.8,162.1 518.7,162.1 	"/>
	<polygon class="st0" points="556.2,169.7 565.9,169.7 565.9,195.1 556.2,195.1 556.2,202.4 615.7,202.4 615.7,186.4 605.9,186.4 
		605.9,195.4 576.2,195.4 576.2,185.6 595.7,185.6 595.7,178 576.2,178 576.2,169.4 605.9,169.4 605.9,177.2 615.7,177.2 
		615.7,162.1 556.2,162.1 	"/>
	<path class="st0" d="M683.8,195.1l-12.9-8.6c7.9-0.9,12.4-4.1,12.4-11.8c0-10.6-6.3-12.6-17.3-12.6h-43.8v7.6h9.7v25.4h-9.7v7.4
		H650v-7.1h-8.2v-7.6h17.2l11.6,7.6h-8.3v7.1h30.1v-7.4H683.8z M665.3,181.1h-23.4v-11.7h23.3c5.7,0,7.9,0.7,7.9,5.9
		C673.1,180.4,671,181.1,665.3,181.1z"/>
</g>
</svg>
