<?xml version="1.0" encoding="utf-8"?>
<!-- Generator: Adobe Illustrator 19.2.1, SVG Export Plug-In . SVG Version: 6.00 Build 0)  -->
<svg version="1.1" id="Layer_1" xmlns="http://www.w3.org/2000/svg" xmlns:xlink="http://www.w3.org/1999/xlink" x="0px" y="0px"
	 viewBox="0 0 32 32" style="enable-background:new 0 0 32 32;" xml:space="preserve">
<style type="text/css">
	.st0{fill:none;stroke:#C8D3D9;stroke-width:0.25;stroke-miterlimit:10;}
</style>
<g>
	<g>
		<path class="st0" d="M20.8,7.6c-0.3,0-0.6,0.1-0.9,0.2C19.6,7.9,19.3,8,19,8.1c-0.4,0.2-0.6,0.4-0.8,0.7c-0.2,0.3-0.4,0.6-0.6,1
			c-0.2,0.5-0.4,1.1-0.8,1.8c-0.3,0.8-0.7,1.6-1.1,2.5c-0.7,1.7-1.5,3.6-2.4,5.6s-1.7,3.9-2.3,5.5c-0.5,0-0.9,0-1.1,0
			C9.5,24,9,22.8,8.6,21.6c-0.4-1.2-0.8-2.3-1.2-3.4c-0.7-2-1.4-3.8-1.9-5.4c-0.6-1.6-1-2.8-1.3-3.5C4.1,9.1,3.9,8.8,3.7,8.6
			C3.5,8.4,3.3,8.2,3,8.1C2.7,7.9,2.4,7.8,2.1,7.7c-0.4,0-0.7-0.1-0.9-0.1c0-0.4,0-0.7,0-0.9c4.2,0,6.9,0,8.3,0c0,0.4,0,0.7,0,0.9
			c-0.5,0-1,0.1-1.7,0.2C7.2,7.8,6.9,8,6.9,8.3c0,0.1,0,0.2,0,0.3C7,8.7,7,8.9,7.1,9c0.1,0.4,0.4,1.1,0.8,2.3
			c0.4,1.1,0.9,2.5,1.5,4.1c0.3,0.9,0.7,1.8,1,2.8c0.4,1,0.7,2,1.1,3.1c0.8-2,1.7-3.9,2.4-5.8c0.8-1.8,1.4-3.3,1.8-4.3
			c0.3-0.8,0.5-1.3,0.5-1.7c0.1-0.3,0.1-0.6,0.1-0.7c0-0.4-0.4-0.7-1.1-0.8c-0.7-0.2-1.4-0.3-2-0.3c0-0.4,0-0.7,0-0.9
			c3.8,0,6.3,0,7.5,0C20.8,7.1,20.8,7.4,20.8,7.6z"/>
		<path class="st0" d="M29.8,25.2c-4.2,0-7,0-8.5,0c0-0.4,0-0.7,0-0.9c0.2,0,0.6,0,1-0.1c0.5,0,0.8-0.1,0.9-0.2
			c0.3-0.1,0.5-0.3,0.7-0.5c0.1-0.2,0.2-0.5,0.2-0.8c0-5.9,0-10.4,0-13.3c0-0.3-0.1-0.6-0.2-0.8s-0.3-0.4-0.7-0.5
			c-0.2-0.1-0.6-0.2-1-0.3c-0.4-0.1-0.8-0.2-1-0.2c0-0.4,0-0.7,0-0.9c4.2,0,7,0,8.5,0c0,0.4,0,0.7,0,0.9c-0.2,0-0.6,0.1-1,0.1
			c-0.4,0.1-0.7,0.1-1,0.2S27.1,8.2,27,8.4c0,0.4,0,0.6,0,0.9c0,5.9,0,10.4,0,13.3c0,0.3,0.1,0.6,0.2,0.8c0.1,0.2,0.3,0.4,0.7,0.5
			c0.2,0.1,0.5,0.1,0.9,0.2c0.5,0.1,0.8,0.1,1.1,0.1C29.8,24.8,29.8,25,29.8,25.2z"/>
	</g>
</g>
</svg>
