<?xml version="1.0" encoding="utf-8"?>
<!-- Generator: Adobe Illustrator 19.2.1, SVG Export Plug-In . SVG Version: 6.00 Build 0)  -->
<svg version="1.1" id="Layer_1" xmlns="http://www.w3.org/2000/svg" xmlns:xlink="http://www.w3.org/1999/xlink" x="0px" y="0px"
	 viewBox="0 0 32 32" style="enable-background:new 0 0 32 32;" xml:space="preserve">
<style type="text/css">
	.st0{fill:none;stroke:#C8D3D9;stroke-width:0.25;stroke-miterlimit:10;}
</style>
<g>
	<g>
		<path class="st0" d="M10.6,25.1c-4.2,0-7,0-8.5,0c0-0.4,0-0.7,0-0.9c0.2,0,0.6,0,1-0.1c0.5,0,0.8-0.1,0.9-0.2
			c0.3-0.1,0.5-0.3,0.7-0.5c0.1-0.2,0.2-0.5,0.2-0.8c0-5.9,0-10.4,0-13.3c0-0.3-0.1-0.6-0.2-0.8C4.6,8.4,4.4,8.2,4.1,8.1
			C3.9,8,3.5,7.9,3.1,7.8s-0.8-0.2-1-0.2c0-0.4,0-0.7,0-0.9c4.2,0,7,0,8.5,0c0,0.4,0,0.7,0,0.9c-0.2,0-0.6,0.1-1,0.1
			c-0.4,0.1-0.7,0.1-1,0.2S8,8.2,7.9,8.4C7.8,8.7,7.8,8.9,7.8,9.2c0,5.9,0,10.4,0,13.3c0,0.3,0.1,0.6,0.2,0.8
			c0.1,0.2,0.3,0.4,0.7,0.5c0.2,0.1,0.5,0.1,0.9,0.2c0.5,0.1,0.8,0.1,1.1,0.1C10.6,24.6,10.6,24.9,10.6,25.1z"/>
		<path class="st0" d="M30.9,7.6c-0.3,0-0.6,0.1-0.9,0.2S29.4,8,29.1,8.1c-0.4,0.2-0.6,0.4-0.8,0.7c-0.2,0.3-0.4,0.6-0.6,1
			c-0.2,0.5-0.4,1.1-0.8,1.8c-0.3,0.8-0.7,1.6-1.1,2.5c-0.7,1.7-1.5,3.6-2.4,5.6s-1.7,3.9-2.3,5.5c-0.5,0-0.9,0-1.1,0
			c-0.4-1.2-0.9-2.4-1.3-3.6s-0.8-2.3-1.2-3.4c-0.7-2-1.4-3.8-1.9-5.4c-0.6-1.6-1-2.8-1.3-3.5C14.2,9,14,8.8,13.9,8.6
			c-0.2-0.2-0.4-0.4-0.8-0.6c-0.2-0.1-0.5-0.2-0.9-0.3c-0.4-0.1-0.6-0.1-0.9-0.2c0-0.4,0-0.7,0-0.9c4.2,0,6.9,0,8.3,0
			c0,0.4,0,0.7,0,0.9c-0.5,0-1,0.1-1.7,0.2C17.3,7.8,17,8,17,8.3c0,0.1,0,0.2,0,0.3s0.1,0.2,0.1,0.4c0.1,0.4,0.4,1.1,0.8,2.3
			c0.4,1.1,0.9,2.5,1.5,4.1c0.3,0.9,0.7,1.8,1,2.8s0.7,2,1.1,3.1c0.8-2,1.7-3.9,2.4-5.8s1.4-3.3,1.8-4.3c0.3-0.8,0.5-1.3,0.5-1.7
			c0.1-0.3,0.1-0.6,0.1-0.7c0-0.4-0.4-0.7-1.1-0.8c-0.7-0.2-1.4-0.3-2-0.3c0-0.4,0-0.7,0-0.9c3.8,0,6.3,0,7.5,0
			C30.9,7.1,30.9,7.4,30.9,7.6z"/>
	</g>
</g>
</svg>
