<?xml version="1.0" encoding="utf-8"?>
<!-- Generator: Adobe Illustrator 19.2.1, SVG Export Plug-In . SVG Version: 6.00 Build 0)  -->
<svg version="1.1" id="Layer_1" xmlns="http://www.w3.org/2000/svg" xmlns:xlink="http://www.w3.org/1999/xlink" x="0px" y="0px"
	 viewBox="0 0 32 32" style="enable-background:new 0 0 32 32;" xml:space="preserve">
<style type="text/css">
	.st0{fill:none;stroke:#C8D3D9;stroke-width:0.25;stroke-miterlimit:10;}
</style>
<g>
	<g>
		<path class="st0" d="M9.2,25.2c-4.2,0-7,0-8.5,0c0-0.4,0-0.7,0-0.9c0.2,0,0.6,0,1-0.1c0.5,0,0.8-0.1,0.9-0.2
			c0.3-0.1,0.5-0.3,0.7-0.5c0.1-0.2,0.2-0.5,0.2-0.8c0-5.9,0-10.4,0-13.3c0-0.3-0.1-0.6-0.2-0.8c0-0.1-0.2-0.3-0.5-0.4
			C2.5,8.1,2.2,8,1.8,7.9S1,7.7,0.8,7.7c0-0.4,0-0.7,0-0.9c4.2,0,7,0,8.5,0c0,0.4,0,0.7,0,0.9c-0.2,0-0.6,0.1-1,0.1
			C7.8,7.9,7.5,7.9,7.3,8C6.9,8.1,6.7,8.3,6.6,8.5C6.5,8.8,6.4,9,6.4,9.3c0,5.9,0,10.4,0,13.3c0,0.3,0.1,0.6,0.2,0.8
			s0.3,0.4,0.7,0.5C7.5,24,7.8,24,8.2,24.1c0.5,0.1,0.8,0.1,1.1,0.1C9.2,24.7,9.2,25,9.2,25.2z"/>
		<path class="st0" d="M20.2,25.2c-4.2,0-7,0-8.5,0c0-0.4,0-0.7,0-0.9c0.2,0,0.6,0,1-0.1c0.5,0,0.8-0.1,0.9-0.2
			c0.3-0.1,0.5-0.3,0.7-0.5c0.1-0.2,0.2-0.5,0.2-0.8c0-5.9,0-10.4,0-13.3c0-0.3-0.1-0.6-0.2-0.8c-0.1-0.2-0.3-0.4-0.7-0.5
			c-0.2-0.1-0.6-0.2-1-0.3c-0.4-0.1-0.8-0.2-1-0.2c0-0.4,0-0.7,0-0.9c4.2,0,7,0,8.5,0c0,0.4,0,0.7,0,0.9c-0.2,0-0.6,0.1-1,0.1
			c-0.4,0.1-0.7,0.1-1,0.2s-0.6,0.3-0.7,0.5s-0.2,0.5-0.2,0.8c0,5.9,0,10.4,0,13.3c0,0.3,0.1,0.6,0.2,0.8c0.1,0.2,0.3,0.4,0.7,0.5
			c0.2,0.1,0.5,0.1,0.9,0.2c0.5,0.1,0.8,0.1,1.1,0.1C20.2,24.7,20.2,25,20.2,25.2z"/>
		<path class="st0" d="M31.2,25.2c-4.2,0-7,0-8.5,0c0-0.4,0-0.7,0-0.9c0.2,0,0.6,0,1-0.1c0.5,0,0.8-0.1,0.9-0.2
			c0.3-0.1,0.5-0.3,0.7-0.5c0.1-0.2,0.2-0.5,0.2-0.8c0-5.9,0-10.4,0-13.3c0-0.3-0.1-0.6-0.2-0.8S25,8.2,24.6,8.1
			c-0.2-0.1-0.6-0.2-1-0.3c-0.4-0.1-0.8-0.2-1-0.2c0-0.4,0-0.7,0-0.9c4.2,0,7,0,8.5,0c0,0.4,0,0.7,0,0.9c-0.2,0-0.6,0.1-1,0.1
			c-0.4,0.1-0.7,0.1-1,0.2s-0.6,0.3-0.7,0.5s-0.2,0.5-0.2,0.8c0,5.9,0,10.4,0,13.3c0,0.3,0.1,0.6,0.2,0.8c0.1,0.2,0.3,0.4,0.7,0.5
			c0.2,0.1,0.5,0.1,0.9,0.2c0.5,0.1,0.8,0.1,1.1,0.1C31.2,24.7,31.2,25,31.2,25.2z"/>
	</g>
</g>
</svg>
